M48
; DRILL file {KiCad 8.0.3} date 2025-04-07T19:31:08+0200
; FORMAT={-:-/ absolute / metric / decimal}
; #@! TF.CreationDate,2025-04-07T19:31:08+02:00
; #@! TF.GenerationSoftware,Kicad,Pcbnew,8.0.3
; #@! TF.FileFunction,Plated,1,4,PTH
FMAT,2
METRIC
; #@! TA.AperFunction,Plated,PTH,ViaDrill
T1C0.200
; #@! TA.AperFunction,Plated,PTH,ViaDrill
T2C0.300
; #@! TA.AperFunction,Plated,PTH,ViaDrill
T3C0.400
; #@! TA.AperFunction,Plated,PTH,ComponentDrill
T4C0.550
; #@! TA.AperFunction,Plated,PTH,ComponentDrill
T5C0.700
; #@! TA.AperFunction,Plated,PTH,ComponentDrill
T6C0.700
; #@! TA.AperFunction,Plated,PTH,ComponentDrill
T7C1.000
; #@! TA.AperFunction,Plated,PTH,ViaDrill
T8C1.000
; #@! TA.AperFunction,Plated,PTH,ComponentDrill
T9C1.100
; #@! TA.AperFunction,Plated,PTH,ComponentDrill
T10C1.200
; #@! TA.AperFunction,Plated,PTH,ComponentDrill
T11C1.700
%
G90
G05
T1
X127.688Y-171.375
X128.525Y-167.575
X128.525Y-168.675
X129.625Y-167.575
X129.625Y-168.675
X131.875Y-170.825
X140.75Y-189.05
X141.15Y-195.5
X142.25Y-195.5
X142.9Y-179.225
X142.9Y-179.925
X143.4Y-183.85
X143.6Y-179.225
X143.6Y-179.925
X143.65Y-182.7
X143.75Y-190.25
X143.95Y-184.675
X144.3Y-179.225
X144.3Y-179.925
X144.95Y-185.1
X145.0Y-179.225
X145.0Y-179.925
X145.7Y-179.225
X145.7Y-179.925
X145.885Y-184.98
X145.885Y-185.59
X145.89Y-186.2
X145.89Y-186.81
X145.89Y-187.42
X146.4Y-179.225
X146.4Y-179.925
X146.5Y-184.98
X146.5Y-185.59
X146.505Y-186.2
X146.505Y-186.81
X146.505Y-187.42
X147.1Y-179.225
X147.1Y-179.925
X147.115Y-184.98
X147.115Y-185.59
X147.12Y-186.2
X147.73Y-184.98
X147.73Y-185.59
X147.735Y-186.2
X147.8Y-179.225
X147.8Y-179.925
X148.85Y-178.99
X148.85Y-179.605
X148.85Y-180.22
X148.85Y-180.835
X148.85Y-181.45
X149.33Y-183.025
X149.33Y-184.075
X149.38Y-185.05
X149.38Y-185.733
X149.38Y-186.417
X149.38Y-187.1
X149.46Y-178.99
X149.46Y-179.605
X149.46Y-180.22
X149.46Y-180.835
X149.46Y-181.45
X149.5Y-171.55
X149.88Y-183.55
X150.063Y-185.05
X150.063Y-185.733
X150.063Y-186.417
X150.063Y-187.1
X150.07Y-178.99
X150.07Y-179.605
X150.07Y-180.22
X150.07Y-180.835
X150.07Y-181.45
X150.417Y-183.025
X150.417Y-184.075
X150.747Y-185.05
X150.747Y-185.733
X150.747Y-186.417
X150.747Y-187.1
X150.767Y-178.99
X150.767Y-179.605
X150.767Y-180.22
X150.767Y-180.835
X150.767Y-181.45
X150.875Y-165.375
X151.055Y-183.55
X151.377Y-178.99
X151.377Y-179.605
X151.377Y-180.22
X151.377Y-180.835
X151.377Y-181.45
X151.43Y-185.05
X151.43Y-185.733
X151.43Y-186.417
X151.43Y-187.1
X151.505Y-183.025
X151.505Y-184.075
X151.75Y-158.15
X151.987Y-178.99
X151.987Y-179.605
X151.987Y-180.22
X151.987Y-180.835
X151.987Y-181.45
X152.7Y-160.6
X152.7Y-161.05
X152.7Y-162.15
X152.7Y-162.6
X153.15Y-160.55
X153.15Y-161.0
X153.15Y-162.2
X153.15Y-162.65
X153.15Y-164.7
X153.45Y-161.6
X153.7Y-158.75
X154.55Y-160.65
X156.235Y-159.075
X157.1Y-187.95
X157.53Y-168.09
X157.7Y-185.7
X157.8Y-197.2
X157.8Y-197.883
X157.8Y-198.567
X157.8Y-199.25
X157.8Y-199.9
X158.5Y-197.2
X158.5Y-197.883
X158.5Y-198.567
X158.5Y-199.25
X158.5Y-199.9
X158.9Y-185.7
X159.062Y-158.175
X159.2Y-197.2
X159.2Y-197.883
X159.2Y-198.567
X159.2Y-199.25
X159.2Y-199.9
X160.162Y-151.575
T2
X117.99Y-164.87
X118.0Y-33.75
X118.0Y-39.75
X118.0Y-163.71
X118.0Y-193.75
X118.0Y-199.75
X118.02Y-162.54
X118.035Y-161.373
X118.055Y-160.213
X119.09Y-164.87
X119.1Y-163.71
X119.12Y-162.54
X119.135Y-161.373
X119.155Y-160.213
X120.19Y-164.87
X120.2Y-163.71
X120.22Y-162.54
X120.235Y-161.373
X120.255Y-160.213
X120.45Y-41.45
X120.45Y-43.2
X120.45Y-44.95
X120.45Y-46.7
X120.45Y-48.45
X120.45Y-50.2
X120.45Y-51.95
X120.45Y-53.7
X120.45Y-55.45
X120.45Y-57.2
X120.45Y-58.95
X120.45Y-60.7
X120.45Y-62.45
X120.45Y-64.2
X120.45Y-65.95
X120.45Y-67.7
X120.45Y-69.45
X120.45Y-71.2
X120.45Y-72.95
X120.45Y-74.7
X120.45Y-76.45
X120.45Y-78.2
X120.45Y-79.95
X120.45Y-81.7
X120.45Y-83.45
X120.45Y-85.2
X120.45Y-86.95
X120.45Y-88.7
X120.45Y-90.45
X120.45Y-92.2
X120.45Y-93.95
X120.45Y-95.7
X120.45Y-97.45
X120.45Y-99.2
X120.45Y-100.95
X120.45Y-102.7
X120.45Y-104.45
X120.45Y-106.2
X120.45Y-107.95
X120.45Y-109.7
X120.45Y-111.45
X120.45Y-113.2
X120.45Y-114.95
X120.45Y-116.7
X120.45Y-118.45
X120.45Y-120.2
X120.45Y-121.95
X120.45Y-123.7
X120.45Y-125.45
X120.45Y-127.2
X120.45Y-170.95
X120.45Y-172.7
X120.45Y-174.45
X120.45Y-176.2
X120.45Y-177.95
X120.45Y-179.7
X120.45Y-181.45
X120.45Y-183.2
X120.45Y-184.95
X120.45Y-186.7
X121.32Y-162.54
X121.335Y-161.373
X121.355Y-160.213
X122.2Y-41.45
X122.2Y-43.2
X122.2Y-44.95
X122.2Y-46.7
X122.2Y-48.45
X122.2Y-50.2
X122.2Y-51.95
X122.2Y-53.7
X122.2Y-55.45
X122.2Y-57.2
X122.2Y-58.95
X122.2Y-60.7
X122.2Y-62.45
X122.2Y-64.2
X122.2Y-65.95
X122.2Y-67.7
X122.2Y-69.45
X122.2Y-71.2
X122.2Y-72.95
X122.2Y-74.7
X122.2Y-76.45
X122.2Y-78.2
X122.2Y-79.95
X122.2Y-81.7
X122.2Y-83.45
X122.2Y-85.2
X122.2Y-86.95
X122.2Y-88.7
X122.2Y-90.45
X122.2Y-92.2
X122.2Y-93.95
X122.2Y-95.7
X122.2Y-97.45
X122.2Y-99.2
X122.2Y-100.95
X122.2Y-102.7
X122.2Y-104.45
X122.2Y-106.2
X122.2Y-107.95
X122.2Y-109.7
X122.2Y-111.45
X122.2Y-113.2
X122.2Y-114.95
X122.2Y-116.7
X122.2Y-118.45
X122.2Y-120.2
X122.2Y-121.95
X122.2Y-123.7
X122.2Y-125.45
X122.2Y-127.2
X122.2Y-186.7
X122.2Y-188.45
X122.425Y-162.537
X122.44Y-161.37
X123.525Y-162.537
X123.54Y-161.37
X123.95Y-41.45
X123.95Y-43.2
X123.95Y-44.95
X123.95Y-46.7
X123.95Y-48.45
X123.95Y-50.2
X123.95Y-51.95
X123.95Y-53.7
X123.95Y-55.45
X123.95Y-57.2
X123.95Y-58.95
X123.95Y-60.7
X123.95Y-62.45
X123.95Y-64.2
X123.95Y-65.95
X123.95Y-67.7
X123.95Y-69.45
X123.95Y-71.2
X123.95Y-72.95
X123.95Y-74.7
X123.95Y-76.45
X123.95Y-78.2
X123.95Y-79.95
X123.95Y-81.7
X123.95Y-83.45
X123.95Y-85.2
X123.95Y-86.95
X123.95Y-88.7
X123.95Y-90.45
X123.95Y-92.2
X123.95Y-93.95
X123.95Y-95.7
X123.95Y-97.45
X123.95Y-99.2
X123.95Y-100.95
X123.95Y-102.7
X123.95Y-104.45
X123.95Y-106.2
X123.95Y-107.95
X123.95Y-109.7
X123.95Y-111.45
X123.95Y-113.2
X123.95Y-114.95
X123.95Y-116.7
X123.95Y-118.45
X123.95Y-120.2
X123.95Y-121.95
X123.95Y-123.7
X123.95Y-125.45
X123.95Y-127.2
X123.95Y-186.7
X123.95Y-188.45
X124.625Y-162.537
X124.64Y-161.37
X125.7Y-36.2
X125.7Y-37.95
X125.7Y-39.7
X125.7Y-41.45
X125.7Y-43.2
X125.7Y-51.95
X125.7Y-53.7
X125.7Y-55.45
X125.7Y-57.2
X125.7Y-58.95
X125.7Y-60.7
X125.7Y-62.45
X125.7Y-64.2
X125.7Y-65.95
X125.7Y-67.7
X125.7Y-69.45
X125.7Y-71.2
X125.7Y-72.95
X125.7Y-74.7
X125.7Y-76.45
X125.7Y-78.2
X125.7Y-79.95
X125.7Y-81.7
X125.7Y-83.45
X125.7Y-85.2
X125.7Y-86.95
X125.7Y-88.7
X125.7Y-90.45
X125.7Y-92.2
X125.7Y-93.95
X125.7Y-95.7
X125.7Y-97.45
X125.7Y-99.2
X125.7Y-100.95
X125.7Y-102.7
X125.7Y-104.45
X125.7Y-106.2
X125.7Y-107.95
X125.7Y-186.7
X125.7Y-188.45
X125.7Y-193.7
X125.7Y-195.45
X125.7Y-197.2
X125.7Y-198.95
X125.725Y-162.537
X125.74Y-161.37
X126.8Y-163.71
X126.825Y-162.537
X126.84Y-161.37
X127.45Y-36.2
X127.45Y-37.95
X127.45Y-39.7
X127.45Y-41.45
X127.45Y-43.2
X127.45Y-51.95
X127.45Y-53.7
X127.45Y-55.45
X127.45Y-57.2
X127.45Y-58.95
X127.45Y-60.7
X127.45Y-62.45
X127.45Y-64.2
X127.45Y-65.95
X127.45Y-67.7
X127.45Y-69.45
X127.45Y-71.2
X127.45Y-72.95
X127.45Y-74.7
X127.45Y-76.45
X127.45Y-78.2
X127.45Y-79.95
X127.45Y-81.7
X127.45Y-83.45
X127.45Y-85.2
X127.45Y-86.95
X127.45Y-88.7
X127.45Y-90.45
X127.45Y-92.2
X127.45Y-93.95
X127.45Y-95.7
X127.45Y-97.45
X127.45Y-99.2
X127.45Y-151.7
X127.45Y-186.7
X127.45Y-188.45
X127.45Y-193.7
X127.45Y-195.45
X127.45Y-197.2
X127.45Y-198.95
X127.9Y-163.71
X127.925Y-162.537
X127.94Y-161.37
X128.525Y-165.375
X128.525Y-166.475
X128.525Y-169.775
X129.025Y-162.537
X129.025Y-163.637
X129.04Y-161.37
X129.2Y-36.2
X129.2Y-37.95
X129.2Y-39.7
X129.2Y-41.45
X129.2Y-43.2
X129.2Y-51.95
X129.2Y-53.7
X129.2Y-55.45
X129.2Y-57.2
X129.2Y-58.95
X129.2Y-60.7
X129.2Y-62.45
X129.2Y-64.2
X129.2Y-65.95
X129.2Y-67.7
X129.2Y-69.45
X129.2Y-71.2
X129.2Y-72.95
X129.2Y-74.7
X129.2Y-76.45
X129.2Y-78.2
X129.2Y-79.95
X129.2Y-81.7
X129.2Y-83.45
X129.2Y-85.2
X129.2Y-86.95
X129.2Y-88.7
X129.2Y-90.45
X129.2Y-92.2
X129.2Y-93.95
X129.2Y-95.7
X129.2Y-97.45
X129.2Y-99.2
X129.2Y-177.95
X129.2Y-179.7
X129.2Y-181.45
X129.2Y-183.2
X129.2Y-184.95
X129.2Y-186.7
X129.2Y-188.45
X129.2Y-193.7
X129.2Y-195.45
X129.2Y-197.2
X129.2Y-198.95
X129.5Y-159.5
X129.625Y-165.375
X129.625Y-166.475
X129.625Y-169.775
X130.125Y-162.537
X130.125Y-163.637
X130.14Y-161.37
X130.357Y-144.95
X130.75Y-151.9
X130.95Y-36.2
X130.95Y-37.95
X130.95Y-39.7
X130.95Y-41.45
X130.95Y-43.2
X130.95Y-51.95
X130.95Y-53.7
X130.95Y-55.45
X130.95Y-57.2
X130.95Y-58.95
X130.95Y-60.7
X130.95Y-62.45
X130.95Y-64.2
X130.95Y-65.95
X130.95Y-67.7
X130.95Y-69.45
X130.95Y-71.2
X130.95Y-72.95
X130.95Y-74.7
X130.95Y-76.45
X130.95Y-78.2
X130.95Y-79.95
X130.95Y-81.7
X130.95Y-83.45
X130.95Y-85.2
X130.95Y-86.95
X130.95Y-88.7
X130.95Y-90.45
X130.95Y-92.2
X130.95Y-93.95
X130.95Y-95.7
X130.95Y-97.45
X130.95Y-99.2
X130.95Y-177.95
X130.95Y-179.7
X130.95Y-181.45
X130.95Y-183.2
X130.95Y-184.95
X130.95Y-186.7
X130.95Y-193.7
X130.95Y-195.45
X130.95Y-197.2
X130.95Y-198.95
X131.225Y-162.537
X131.225Y-163.637
X131.225Y-172.438
X131.225Y-173.537
X131.225Y-174.637
X131.225Y-175.737
X131.24Y-161.37
X132.325Y-162.537
X132.325Y-163.637
X132.325Y-172.438
X132.325Y-173.537
X132.325Y-174.637
X132.325Y-175.737
X132.34Y-161.37
X132.7Y-36.2
X132.7Y-37.95
X132.7Y-39.7
X132.7Y-41.45
X132.7Y-43.2
X132.7Y-51.95
X132.7Y-53.7
X132.7Y-55.45
X132.7Y-57.2
X132.7Y-58.95
X132.7Y-60.7
X132.7Y-62.45
X132.7Y-64.2
X132.7Y-65.95
X132.7Y-67.7
X132.7Y-69.45
X132.7Y-71.2
X132.7Y-72.95
X132.7Y-74.7
X132.7Y-76.45
X132.7Y-78.2
X132.7Y-79.95
X132.7Y-81.7
X132.7Y-83.45
X132.7Y-85.2
X132.7Y-86.95
X132.7Y-88.7
X132.7Y-90.45
X132.7Y-92.2
X132.7Y-93.95
X132.7Y-95.7
X132.7Y-97.45
X132.7Y-99.2
X132.7Y-100.95
X132.7Y-102.7
X132.7Y-104.45
X132.7Y-106.2
X132.7Y-107.95
X132.7Y-177.95
X132.7Y-191.95
X132.7Y-193.7
X132.7Y-195.45
X132.7Y-197.2
X132.7Y-198.95
X132.75Y-159.7
X133.175Y-150.175
X133.425Y-162.537
X133.425Y-173.537
X133.425Y-174.637
X133.425Y-175.737
X133.44Y-161.37
X134.0Y-152.1
X134.45Y-39.7
X134.45Y-41.45
X134.45Y-43.2
X134.45Y-51.95
X134.45Y-53.7
X134.45Y-55.45
X134.45Y-57.2
X134.45Y-58.95
X134.45Y-60.7
X134.45Y-62.45
X134.45Y-64.2
X134.45Y-65.95
X134.45Y-67.7
X134.45Y-69.45
X134.45Y-71.2
X134.45Y-72.95
X134.45Y-74.7
X134.45Y-76.45
X134.45Y-78.2
X134.45Y-79.95
X134.45Y-81.7
X134.45Y-83.45
X134.45Y-85.2
X134.45Y-86.95
X134.45Y-88.7
X134.45Y-90.45
X134.45Y-92.2
X134.45Y-93.95
X134.45Y-95.7
X134.45Y-97.45
X134.45Y-99.2
X134.45Y-100.95
X134.45Y-102.7
X134.45Y-104.45
X134.45Y-106.2
X134.45Y-107.95
X134.45Y-177.95
X134.45Y-195.45
X134.45Y-197.2
X134.45Y-198.95
X134.525Y-162.537
X134.525Y-173.537
X134.525Y-174.637
X134.525Y-175.737
X134.54Y-161.37
X135.625Y-162.537
X135.625Y-173.537
X135.625Y-174.637
X135.625Y-175.737
X135.64Y-161.37
X136.2Y-39.7
X136.2Y-41.45
X136.2Y-43.2
X136.2Y-55.45
X136.2Y-57.2
X136.2Y-58.95
X136.2Y-60.7
X136.2Y-62.45
X136.2Y-64.2
X136.2Y-65.95
X136.2Y-67.7
X136.2Y-69.45
X136.2Y-71.2
X136.2Y-72.95
X136.2Y-74.7
X136.2Y-76.45
X136.2Y-78.2
X136.2Y-79.95
X136.2Y-81.7
X136.2Y-83.45
X136.2Y-85.2
X136.2Y-86.95
X136.2Y-88.7
X136.2Y-90.45
X136.2Y-92.2
X136.2Y-93.95
X136.2Y-95.7
X136.725Y-173.537
X136.725Y-174.637
X136.725Y-175.737
X138.95Y-196.862
X139.05Y-192.25
X139.5Y-189.35
X139.7Y-36.2
X139.7Y-37.95
X140.05Y-196.862
X140.05Y-197.962
X140.05Y-199.062
X141.15Y-199.062
X141.45Y-36.2
X142.25Y-199.062
X143.2Y-36.2
X143.35Y-199.062
X144.3Y-152.95
X144.3Y-154.05
X144.3Y-155.15
X144.3Y-156.25
X144.3Y-157.35
X144.45Y-196.862
X144.45Y-197.962
X144.45Y-199.062
X144.95Y-36.2
X145.0Y-169.975
X145.025Y-165.65
X145.025Y-166.75
X145.025Y-167.85
X145.025Y-168.95
X145.15Y-192.25
X145.4Y-149.65
X145.4Y-150.75
X145.4Y-151.85
X145.4Y-152.95
X145.4Y-154.05
X145.4Y-155.15
X145.4Y-156.25
X145.4Y-157.35
X145.625Y-163.6
X145.65Y-159.6
X146.1Y-169.975
X146.1Y-171.075
X146.125Y-165.65
X146.125Y-166.75
X146.125Y-167.85
X146.125Y-168.95
X146.2Y-193.05
X146.375Y-159.6
X146.375Y-163.6
X146.47Y-189.41
X146.5Y-151.85
X146.5Y-152.95
X146.5Y-154.05
X146.5Y-155.15
X146.5Y-156.25
X146.5Y-157.35
X147.1Y-159.6
X147.125Y-163.6
X147.75Y-197.962
X147.75Y-199.062
X148.45Y-39.7
X148.85Y-197.962
X148.85Y-199.062
X149.95Y-197.962
X149.95Y-199.062
X150.2Y-36.2
X150.2Y-37.95
X150.2Y-39.7
X150.2Y-41.45
X150.2Y-43.2
X150.2Y-58.95
X150.2Y-60.7
X150.2Y-62.45
X150.2Y-64.2
X150.2Y-65.95
X150.2Y-67.7
X150.2Y-69.45
X150.2Y-71.2
X150.2Y-72.95
X150.2Y-74.7
X150.2Y-76.45
X150.2Y-78.2
X150.2Y-79.95
X150.2Y-81.7
X150.2Y-83.45
X150.2Y-85.2
X150.2Y-86.95
X150.2Y-88.7
X150.2Y-90.45
X150.2Y-92.2
X150.2Y-93.95
X150.2Y-95.7
X150.2Y-97.45
X150.2Y-99.2
X150.2Y-100.95
X150.2Y-102.7
X150.2Y-104.45
X150.2Y-106.2
X150.2Y-107.95
X150.2Y-109.7
X150.2Y-111.45
X150.2Y-113.2
X150.2Y-114.95
X150.2Y-116.7
X150.2Y-118.45
X150.2Y-120.2
X150.2Y-138.6
X150.2Y-140.35
X151.05Y-197.962
X151.05Y-199.062
X151.78Y-152.4
X151.78Y-153.5
X151.78Y-154.6
X151.78Y-155.7
X151.925Y-143.6
X151.925Y-144.7
X151.925Y-145.8
X151.925Y-146.9
X151.925Y-148.0
X151.925Y-149.1
X151.925Y-150.2
X151.925Y-151.3
X151.95Y-36.2
X151.95Y-37.95
X151.95Y-39.7
X151.95Y-41.45
X151.95Y-43.2
X151.95Y-57.2
X151.95Y-58.95
X151.95Y-60.7
X151.95Y-62.45
X151.95Y-64.2
X151.95Y-65.95
X151.95Y-67.7
X151.95Y-69.45
X151.95Y-71.2
X151.95Y-72.95
X151.95Y-74.7
X151.95Y-76.45
X151.95Y-78.2
X151.95Y-79.95
X151.95Y-81.7
X151.95Y-83.45
X151.95Y-85.2
X151.95Y-86.95
X151.95Y-88.7
X151.95Y-90.45
X151.95Y-92.2
X151.95Y-93.95
X151.95Y-95.7
X151.95Y-97.45
X151.95Y-99.2
X151.95Y-100.95
X151.95Y-102.7
X151.95Y-104.45
X151.95Y-106.2
X151.95Y-107.95
X151.95Y-109.7
X151.95Y-111.45
X151.95Y-113.2
X151.95Y-114.95
X151.95Y-116.7
X151.95Y-118.45
X151.95Y-120.2
X151.95Y-168.15
X152.08Y-190.26
X152.15Y-197.962
X152.15Y-199.062
X152.18Y-189.47
X153.025Y-143.6
X153.025Y-144.7
X153.025Y-145.8
X153.025Y-146.9
X153.025Y-148.0
X153.025Y-149.1
X153.025Y-150.2
X153.025Y-151.3
X153.25Y-197.962
X153.25Y-199.062
X153.7Y-36.2
X153.7Y-37.95
X153.7Y-39.7
X153.7Y-41.45
X153.7Y-43.2
X153.7Y-55.45
X153.7Y-57.2
X153.7Y-58.95
X153.7Y-60.7
X153.7Y-62.45
X153.7Y-64.2
X153.7Y-65.95
X153.7Y-67.7
X153.7Y-69.45
X153.7Y-71.2
X153.7Y-72.95
X153.7Y-74.7
X153.7Y-76.45
X153.7Y-78.2
X153.7Y-79.95
X153.7Y-81.7
X153.7Y-83.45
X153.7Y-85.2
X153.7Y-86.95
X153.7Y-88.7
X153.7Y-90.45
X153.7Y-92.2
X153.7Y-93.95
X153.7Y-95.7
X153.7Y-97.45
X153.7Y-99.2
X153.7Y-100.95
X153.7Y-102.7
X153.7Y-104.45
X153.7Y-106.2
X153.7Y-107.95
X153.7Y-109.7
X153.7Y-111.45
X153.7Y-113.2
X153.7Y-114.95
X153.7Y-116.7
X153.7Y-118.45
X153.7Y-120.2
X153.9Y-161.0
X153.9Y-162.15
X154.35Y-197.962
X154.35Y-199.062
X154.4Y-161.6
X154.5Y-179.25
X154.5Y-180.35
X154.575Y-143.6
X154.575Y-144.7
X154.575Y-145.8
X154.575Y-146.9
X154.575Y-148.0
X154.575Y-149.1
X154.575Y-150.2
X154.9Y-164.65
X155.45Y-36.2
X155.45Y-37.95
X155.45Y-39.7
X155.45Y-41.45
X155.45Y-43.2
X155.45Y-53.7
X155.45Y-55.45
X155.45Y-57.2
X155.45Y-58.95
X155.45Y-60.7
X155.45Y-62.45
X155.45Y-64.2
X155.45Y-65.95
X155.45Y-67.7
X155.45Y-69.45
X155.45Y-71.2
X155.45Y-72.95
X155.45Y-74.7
X155.45Y-76.45
X155.45Y-78.2
X155.45Y-79.95
X155.45Y-81.7
X155.45Y-83.45
X155.45Y-85.2
X155.45Y-86.95
X155.45Y-88.7
X155.45Y-90.45
X155.45Y-92.2
X155.45Y-93.95
X155.45Y-95.7
X155.45Y-97.45
X155.45Y-99.2
X155.45Y-100.95
X155.45Y-102.7
X155.45Y-104.45
X155.45Y-106.2
X155.45Y-107.95
X155.45Y-109.7
X155.45Y-111.45
X155.45Y-113.2
X155.45Y-114.95
X155.45Y-116.7
X155.45Y-118.45
X155.45Y-120.2
X155.45Y-179.262
X155.45Y-197.962
X155.45Y-199.062
X155.55Y-172.65
X155.55Y-173.75
X155.675Y-143.6
X155.675Y-144.7
X155.675Y-145.8
X155.675Y-146.9
X155.675Y-148.0
X155.675Y-149.1
X155.675Y-150.2
X156.35Y-162.3
X156.5Y-172.65
X156.55Y-173.762
X156.55Y-174.862
X156.55Y-175.963
X156.55Y-177.062
X156.55Y-178.162
X156.55Y-179.262
X157.05Y-154.45
X157.05Y-155.55
X157.2Y-36.2
X157.2Y-37.95
X157.2Y-39.7
X157.2Y-41.45
X157.2Y-43.2
X157.2Y-55.45
X157.2Y-57.2
X157.2Y-58.95
X157.2Y-60.7
X157.2Y-62.45
X157.2Y-64.2
X157.2Y-65.95
X157.2Y-67.7
X157.2Y-69.45
X157.2Y-71.2
X157.2Y-72.95
X157.2Y-74.7
X157.2Y-76.45
X157.2Y-78.2
X157.2Y-79.95
X157.2Y-81.7
X157.2Y-83.45
X157.2Y-85.2
X157.2Y-86.95
X157.2Y-88.7
X157.2Y-90.45
X157.2Y-92.2
X157.2Y-93.95
X157.2Y-95.7
X157.2Y-97.45
X157.2Y-99.2
X157.2Y-100.95
X157.2Y-102.7
X157.2Y-104.45
X157.2Y-106.2
X157.2Y-107.95
X157.2Y-109.7
X157.2Y-111.45
X157.2Y-113.2
X157.2Y-114.95
X157.2Y-116.7
X157.2Y-118.45
X157.2Y-120.2
X157.6Y-173.75
X157.6Y-174.85
X157.6Y-175.95
X158.15Y-154.45
X158.15Y-155.55
X158.85Y-52.1
X158.95Y-39.7
X158.95Y-41.45
X158.95Y-43.2
X158.95Y-57.2
X158.95Y-58.95
X158.95Y-60.7
X158.95Y-62.45
X158.95Y-64.2
X158.95Y-65.95
X158.95Y-67.7
X158.95Y-69.45
X158.95Y-71.2
X158.95Y-72.95
X158.95Y-74.7
X158.95Y-76.45
X158.95Y-78.2
X158.95Y-79.95
X158.95Y-81.7
X158.95Y-83.45
X158.95Y-85.2
X158.95Y-86.95
X158.95Y-88.7
X158.95Y-90.45
X158.95Y-92.2
X158.95Y-93.95
X158.95Y-95.7
X158.95Y-97.45
X158.95Y-99.2
X158.95Y-100.95
X158.95Y-102.7
X158.95Y-104.45
X158.95Y-106.2
X158.95Y-107.95
X158.95Y-109.7
X158.95Y-111.45
X158.95Y-113.2
X158.95Y-114.95
X158.95Y-116.7
X158.95Y-118.45
X158.95Y-120.2
X159.9Y-172.65
X159.9Y-173.588
X160.7Y-41.45
X160.7Y-43.2
X160.7Y-44.95
X160.7Y-46.7
X160.7Y-48.45
X160.7Y-58.95
X160.7Y-60.7
X160.7Y-62.45
X160.7Y-64.2
X160.7Y-65.95
X160.7Y-67.7
X160.7Y-69.45
X160.7Y-71.2
X160.7Y-72.95
X160.7Y-74.7
X160.7Y-76.45
X160.7Y-78.2
X160.7Y-79.95
X160.7Y-81.7
X160.7Y-83.45
X160.7Y-85.2
X160.7Y-86.95
X160.7Y-88.7
X160.7Y-90.45
X160.7Y-92.2
X160.7Y-93.95
X160.7Y-95.7
X160.7Y-97.45
X160.7Y-99.2
X160.7Y-100.95
X160.7Y-102.7
X160.7Y-104.45
X160.7Y-106.2
X160.7Y-107.95
X160.7Y-109.7
X160.7Y-111.45
X160.7Y-113.2
X160.7Y-114.95
X160.7Y-116.7
X160.7Y-118.45
X160.7Y-120.2
X160.7Y-137.7
X160.7Y-139.45
X160.7Y-141.2
X160.7Y-148.2
X160.83Y-189.08
X160.95Y-172.662
X160.95Y-173.6
X161.012Y-158.375
X161.69Y-189.06
X162.0Y-172.65
X162.0Y-173.588
X162.45Y-41.45
X162.45Y-43.2
X162.45Y-44.95
X162.45Y-46.7
X162.45Y-48.45
X162.45Y-50.2
X162.45Y-137.7
X162.45Y-139.45
X162.45Y-141.2
X162.45Y-142.95
X162.45Y-149.95
X162.45Y-165.7
X162.45Y-167.45
X164.2Y-43.2
X164.2Y-44.95
X164.2Y-46.7
X164.2Y-48.45
X164.2Y-50.2
X164.2Y-51.95
X164.2Y-135.95
X164.2Y-137.7
X164.2Y-139.45
X164.2Y-141.2
X164.2Y-142.95
X164.2Y-144.7
X164.2Y-163.95
X164.2Y-165.7
X164.2Y-167.45
X166.0Y-33.75
X166.0Y-39.75
X166.0Y-193.75
X166.0Y-199.75
T3
X138.025Y-189.375
X138.625Y-184.95
T4
X137.05Y-148.45
X137.05Y-150.15
X160.06Y-144.37
X160.06Y-146.07
T5
X139.11Y-195.53
X144.89Y-195.53
T7
X136.5Y-35.987
X147.5Y-35.987
T8
X149.84Y-125.6
X153.97Y-124.99
X158.42Y-125.52
X160.1Y-129.64
T9
X153.76Y-191.3
X156.3Y-191.3
X157.55Y-170.5
X158.84Y-191.3
X160.09Y-170.5
X161.38Y-191.3
X162.63Y-170.5
X165.17Y-170.5
T10
X121.2Y-129.85
X121.2Y-132.39
X135.27Y-189.04
X135.27Y-191.58
X147.3Y-149.45
X149.84Y-149.45
X151.98Y-176.5
X152.455Y-141.4
X154.52Y-176.5
X154.995Y-141.4
T11
X139.5Y-40.987
X144.5Y-40.987
T6
X137.68Y-194.48G85X137.68Y-195.58
G05
X137.68Y-198.91G85X137.68Y-199.51
G05
X146.32Y-194.48G85X146.32Y-195.58
G05
X146.32Y-198.91G85X146.32Y-199.51
G05
T10
X129.61Y-102.6G85X128.91Y-102.6
G05
X129.61Y-107.3G85X128.91Y-107.3
G05
X129.61Y-112.0G85X128.91Y-112.0
G05
M30
