G04 #@! TF.GenerationSoftware,KiCad,Pcbnew,8.0.3*
G04 #@! TF.CreationDate,2025-04-07T19:30:46+02:00*
G04 #@! TF.ProjectId,TIDA-PowerPack,54494441-2d50-46f7-9765-725061636b2e,rev?*
G04 #@! TF.SameCoordinates,Original*
G04 #@! TF.FileFunction,Soldermask,Bot*
G04 #@! TF.FilePolarity,Negative*
%FSLAX46Y46*%
G04 Gerber Fmt 4.6, Leading zero omitted, Abs format (unit mm)*
G04 Created by KiCad (PCBNEW 8.0.3) date 2025-04-07 19:30:46*
%MOMM*%
%LPD*%
G01*
G04 APERTURE LIST*
G04 Aperture macros list*
%AMRoundRect*
0 Rectangle with rounded corners*
0 $1 Rounding radius*
0 $2 $3 $4 $5 $6 $7 $8 $9 X,Y pos of 4 corners*
0 Add a 4 corners polygon primitive as box body*
4,1,4,$2,$3,$4,$5,$6,$7,$8,$9,$2,$3,0*
0 Add four circle primitives for the rounded corners*
1,1,$1+$1,$2,$3*
1,1,$1+$1,$4,$5*
1,1,$1+$1,$6,$7*
1,1,$1+$1,$8,$9*
0 Add four rect primitives between the rounded corners*
20,1,$1+$1,$2,$3,$4,$5,0*
20,1,$1+$1,$4,$5,$6,$7,0*
20,1,$1+$1,$6,$7,$8,$9,0*
20,1,$1+$1,$8,$9,$2,$3,0*%
G04 Aperture macros list end*
%ADD10C,1.000000*%
%ADD11C,4.249987*%
%ADD12C,2.400000*%
%ADD13C,0.700000*%
%ADD14O,1.200000X2.200000*%
%ADD15O,1.200000X1.800000*%
%ADD16R,2.000000X2.000000*%
%ADD17C,2.000000*%
%ADD18O,2.700000X1.800000*%
%ADD19R,1.700000X1.700000*%
%ADD20C,1.700000*%
%ADD21C,2.500000*%
%ADD22C,1.800000*%
%ADD23R,7.620000X5.080000*%
%ADD24RoundRect,0.237500X0.300000X0.237500X-0.300000X0.237500X-0.300000X-0.237500X0.300000X-0.237500X0*%
%ADD25RoundRect,0.237500X-0.237500X0.300000X-0.237500X-0.300000X0.237500X-0.300000X0.237500X0.300000X0*%
%ADD26RoundRect,0.250000X-0.337500X-0.475000X0.337500X-0.475000X0.337500X0.475000X-0.337500X0.475000X0*%
%ADD27RoundRect,0.237500X-0.300000X-0.237500X0.300000X-0.237500X0.300000X0.237500X-0.300000X0.237500X0*%
G04 APERTURE END LIST*
D10*
X137050000Y-150150000D03*
X137050000Y-148450000D03*
D11*
X162999970Y-36752540D03*
D12*
X146050000Y-124340000D03*
X137350000Y-52720000D03*
D13*
X139110000Y-195530000D03*
X144890000Y-195530000D03*
D14*
X137680000Y-195030000D03*
D15*
X137680000Y-199210000D03*
D14*
X146320000Y-195030000D03*
D15*
X146320000Y-199210000D03*
D11*
X120999970Y-196752540D03*
D16*
X147300000Y-149450000D03*
D17*
X149840000Y-149450000D03*
D18*
X129260000Y-102600000D03*
X129260000Y-107300000D03*
X129260000Y-112000000D03*
D16*
X154520000Y-176500000D03*
D17*
X151980000Y-176500000D03*
D16*
X152455000Y-141400000D03*
D17*
X154995000Y-141400000D03*
D11*
X163009970Y-196752540D03*
D16*
X135270000Y-191580000D03*
D17*
X135270000Y-189040000D03*
D19*
X165170000Y-170500000D03*
D20*
X162630000Y-170500000D03*
X160090000Y-170500000D03*
X157550000Y-170500000D03*
D19*
X153760000Y-191300000D03*
D20*
X156300000Y-191300000D03*
X158840000Y-191300000D03*
X161380000Y-191300000D03*
D16*
X121200000Y-132390000D03*
D17*
X121200000Y-129850000D03*
D11*
X120999970Y-36752540D03*
D21*
X144500000Y-40987500D03*
X139500000Y-40987500D03*
D22*
X136500000Y-35987500D03*
X147500000Y-35987500D03*
D10*
X160060000Y-144370000D03*
X160060000Y-146070000D03*
D12*
X137300000Y-124430000D03*
D23*
X129300000Y-47280000D03*
X129300000Y-129900000D03*
D24*
X153545000Y-159700000D03*
X151820000Y-159700000D03*
D25*
X147900000Y-189337500D03*
X147900000Y-191062500D03*
D26*
X151215000Y-178850000D03*
X153290000Y-178850000D03*
X151227500Y-180850000D03*
X153302500Y-180850000D03*
D25*
X150905000Y-189337500D03*
X150905000Y-191062500D03*
D27*
X151887500Y-163500000D03*
X153612500Y-163500000D03*
D25*
X149405000Y-189337500D03*
X149405000Y-191062500D03*
D12*
X146000000Y-52750000D03*
D23*
X154000000Y-129900000D03*
X154000000Y-47280000D03*
M02*
