%TF.GenerationSoftware,KiCad,Pcbnew,8.0.3*%
%TF.CreationDate,2025-04-07T19:31:19+02:00*%
%TF.ProjectId,TIDA-PowerPack,54494441-2d50-46f7-9765-725061636b2e,rev?*%
%TF.SameCoordinates,Original*%
%TF.FileFunction,Drillmap*%
%TF.FilePolarity,Positive*%
%FSLAX45Y45*%
G04 Gerber Fmt 4.5, Leading zero omitted, Abs format (unit mm)*
G04 Created by KiCad (PCBNEW 8.0.3) date 2025-04-07 19:31:19*
%MOMM*%
%LPD*%
G01*
G04 APERTURE LIST*
%ADD10C,0.100000*%
%ADD11C,0.200000*%
%ADD12C,0.240000*%
%ADD13C,0.424998*%
G04 APERTURE END LIST*
D10*
X11700000Y-3275000D02*
X16700000Y-3275000D01*
X16700000Y-20075000D01*
X11700000Y-20075000D01*
X11700000Y-3275000D01*
D11*
D12*
X13610000Y-12323000D02*
X13850000Y-12563000D01*
X13850000Y-12323000D02*
X13610000Y-12563000D01*
X13615000Y-5152000D02*
X13855000Y-5392000D01*
X13855000Y-5152000D02*
X13615000Y-5392000D01*
X14480000Y-5155000D02*
X14720000Y-5395000D01*
X14720000Y-5155000D02*
X14480000Y-5395000D01*
X14485000Y-12314000D02*
X14725000Y-12554000D01*
X14725000Y-12314000D02*
X14485000Y-12554000D01*
D13*
X12312496Y-3675254D02*
G75*
G02*
X11887498Y-3675254I-212499J0D01*
G01*
X11887498Y-3675254D02*
G75*
G02*
X12312496Y-3675254I212499J0D01*
G01*
X12312496Y-19675254D02*
G75*
G02*
X11887498Y-19675254I-212499J0D01*
G01*
X11887498Y-19675254D02*
G75*
G02*
X12312496Y-19675254I212499J0D01*
G01*
X16512496Y-3675254D02*
G75*
G02*
X16087498Y-3675254I-212499J0D01*
G01*
X16087498Y-3675254D02*
G75*
G02*
X16512496Y-3675254I212499J0D01*
G01*
X16513496Y-19675254D02*
G75*
G02*
X16088498Y-19675254I-212499J0D01*
G01*
X16088498Y-19675254D02*
G75*
G02*
X16513496Y-19675254I212499J0D01*
G01*
D11*
X11955777Y-20391484D02*
X11955777Y-20191484D01*
X11955777Y-20191484D02*
X12003396Y-20191484D01*
X12003396Y-20191484D02*
X12031967Y-20201008D01*
X12031967Y-20201008D02*
X12051015Y-20220055D01*
X12051015Y-20220055D02*
X12060539Y-20239103D01*
X12060539Y-20239103D02*
X12070062Y-20277198D01*
X12070062Y-20277198D02*
X12070062Y-20305770D01*
X12070062Y-20305770D02*
X12060539Y-20343865D01*
X12060539Y-20343865D02*
X12051015Y-20362912D01*
X12051015Y-20362912D02*
X12031967Y-20381960D01*
X12031967Y-20381960D02*
X12003396Y-20391484D01*
X12003396Y-20391484D02*
X11955777Y-20391484D01*
X12155777Y-20391484D02*
X12155777Y-20258150D01*
X12155777Y-20296246D02*
X12165301Y-20277198D01*
X12165301Y-20277198D02*
X12174824Y-20267674D01*
X12174824Y-20267674D02*
X12193872Y-20258150D01*
X12193872Y-20258150D02*
X12212920Y-20258150D01*
X12279586Y-20391484D02*
X12279586Y-20258150D01*
X12279586Y-20191484D02*
X12270062Y-20201008D01*
X12270062Y-20201008D02*
X12279586Y-20210531D01*
X12279586Y-20210531D02*
X12289110Y-20201008D01*
X12289110Y-20201008D02*
X12279586Y-20191484D01*
X12279586Y-20191484D02*
X12279586Y-20210531D01*
X12403396Y-20391484D02*
X12384348Y-20381960D01*
X12384348Y-20381960D02*
X12374824Y-20362912D01*
X12374824Y-20362912D02*
X12374824Y-20191484D01*
X12508158Y-20391484D02*
X12489110Y-20381960D01*
X12489110Y-20381960D02*
X12479586Y-20362912D01*
X12479586Y-20362912D02*
X12479586Y-20191484D01*
X12736729Y-20391484D02*
X12736729Y-20191484D01*
X12736729Y-20191484D02*
X12803396Y-20334341D01*
X12803396Y-20334341D02*
X12870062Y-20191484D01*
X12870062Y-20191484D02*
X12870062Y-20391484D01*
X13051015Y-20391484D02*
X13051015Y-20286722D01*
X13051015Y-20286722D02*
X13041491Y-20267674D01*
X13041491Y-20267674D02*
X13022443Y-20258150D01*
X13022443Y-20258150D02*
X12984348Y-20258150D01*
X12984348Y-20258150D02*
X12965301Y-20267674D01*
X13051015Y-20381960D02*
X13031967Y-20391484D01*
X13031967Y-20391484D02*
X12984348Y-20391484D01*
X12984348Y-20391484D02*
X12965301Y-20381960D01*
X12965301Y-20381960D02*
X12955777Y-20362912D01*
X12955777Y-20362912D02*
X12955777Y-20343865D01*
X12955777Y-20343865D02*
X12965301Y-20324817D01*
X12965301Y-20324817D02*
X12984348Y-20315293D01*
X12984348Y-20315293D02*
X13031967Y-20315293D01*
X13031967Y-20315293D02*
X13051015Y-20305770D01*
X13146253Y-20258150D02*
X13146253Y-20458150D01*
X13146253Y-20267674D02*
X13165301Y-20258150D01*
X13165301Y-20258150D02*
X13203396Y-20258150D01*
X13203396Y-20258150D02*
X13222443Y-20267674D01*
X13222443Y-20267674D02*
X13231967Y-20277198D01*
X13231967Y-20277198D02*
X13241491Y-20296246D01*
X13241491Y-20296246D02*
X13241491Y-20353389D01*
X13241491Y-20353389D02*
X13231967Y-20372436D01*
X13231967Y-20372436D02*
X13222443Y-20381960D01*
X13222443Y-20381960D02*
X13203396Y-20391484D01*
X13203396Y-20391484D02*
X13165301Y-20391484D01*
X13165301Y-20391484D02*
X13146253Y-20381960D01*
X13327205Y-20372436D02*
X13336729Y-20381960D01*
X13336729Y-20381960D02*
X13327205Y-20391484D01*
X13327205Y-20391484D02*
X13317682Y-20381960D01*
X13317682Y-20381960D02*
X13327205Y-20372436D01*
X13327205Y-20372436D02*
X13327205Y-20391484D01*
X13327205Y-20267674D02*
X13336729Y-20277198D01*
X13336729Y-20277198D02*
X13327205Y-20286722D01*
X13327205Y-20286722D02*
X13317682Y-20277198D01*
X13317682Y-20277198D02*
X13327205Y-20267674D01*
X13327205Y-20267674D02*
X13327205Y-20286722D01*
X11495000Y-20620000D02*
X11695000Y-20820000D01*
X11695000Y-20620000D02*
X11495000Y-20820000D01*
X11946253Y-20630531D02*
X11955777Y-20621008D01*
X11955777Y-20621008D02*
X11974824Y-20611484D01*
X11974824Y-20611484D02*
X12022443Y-20611484D01*
X12022443Y-20611484D02*
X12041491Y-20621008D01*
X12041491Y-20621008D02*
X12051015Y-20630531D01*
X12051015Y-20630531D02*
X12060539Y-20649579D01*
X12060539Y-20649579D02*
X12060539Y-20668627D01*
X12060539Y-20668627D02*
X12051015Y-20697198D01*
X12051015Y-20697198D02*
X11936729Y-20811484D01*
X11936729Y-20811484D02*
X12060539Y-20811484D01*
X12146253Y-20792436D02*
X12155777Y-20801960D01*
X12155777Y-20801960D02*
X12146253Y-20811484D01*
X12146253Y-20811484D02*
X12136729Y-20801960D01*
X12136729Y-20801960D02*
X12146253Y-20792436D01*
X12146253Y-20792436D02*
X12146253Y-20811484D01*
X12327205Y-20678150D02*
X12327205Y-20811484D01*
X12279586Y-20601960D02*
X12231967Y-20744817D01*
X12231967Y-20744817D02*
X12355777Y-20744817D01*
X12470062Y-20611484D02*
X12489110Y-20611484D01*
X12489110Y-20611484D02*
X12508158Y-20621008D01*
X12508158Y-20621008D02*
X12517682Y-20630531D01*
X12517682Y-20630531D02*
X12527205Y-20649579D01*
X12527205Y-20649579D02*
X12536729Y-20687674D01*
X12536729Y-20687674D02*
X12536729Y-20735293D01*
X12536729Y-20735293D02*
X12527205Y-20773389D01*
X12527205Y-20773389D02*
X12517682Y-20792436D01*
X12517682Y-20792436D02*
X12508158Y-20801960D01*
X12508158Y-20801960D02*
X12489110Y-20811484D01*
X12489110Y-20811484D02*
X12470062Y-20811484D01*
X12470062Y-20811484D02*
X12451015Y-20801960D01*
X12451015Y-20801960D02*
X12441491Y-20792436D01*
X12441491Y-20792436D02*
X12431967Y-20773389D01*
X12431967Y-20773389D02*
X12422443Y-20735293D01*
X12422443Y-20735293D02*
X12422443Y-20687674D01*
X12422443Y-20687674D02*
X12431967Y-20649579D01*
X12431967Y-20649579D02*
X12441491Y-20630531D01*
X12441491Y-20630531D02*
X12451015Y-20621008D01*
X12451015Y-20621008D02*
X12470062Y-20611484D01*
X12660539Y-20611484D02*
X12679586Y-20611484D01*
X12679586Y-20611484D02*
X12698634Y-20621008D01*
X12698634Y-20621008D02*
X12708158Y-20630531D01*
X12708158Y-20630531D02*
X12717682Y-20649579D01*
X12717682Y-20649579D02*
X12727205Y-20687674D01*
X12727205Y-20687674D02*
X12727205Y-20735293D01*
X12727205Y-20735293D02*
X12717682Y-20773389D01*
X12717682Y-20773389D02*
X12708158Y-20792436D01*
X12708158Y-20792436D02*
X12698634Y-20801960D01*
X12698634Y-20801960D02*
X12679586Y-20811484D01*
X12679586Y-20811484D02*
X12660539Y-20811484D01*
X12660539Y-20811484D02*
X12641491Y-20801960D01*
X12641491Y-20801960D02*
X12631967Y-20792436D01*
X12631967Y-20792436D02*
X12622443Y-20773389D01*
X12622443Y-20773389D02*
X12612920Y-20735293D01*
X12612920Y-20735293D02*
X12612920Y-20687674D01*
X12612920Y-20687674D02*
X12622443Y-20649579D01*
X12622443Y-20649579D02*
X12631967Y-20630531D01*
X12631967Y-20630531D02*
X12641491Y-20621008D01*
X12641491Y-20621008D02*
X12660539Y-20611484D01*
X12812920Y-20811484D02*
X12812920Y-20678150D01*
X12812920Y-20697198D02*
X12822443Y-20687674D01*
X12822443Y-20687674D02*
X12841491Y-20678150D01*
X12841491Y-20678150D02*
X12870063Y-20678150D01*
X12870063Y-20678150D02*
X12889110Y-20687674D01*
X12889110Y-20687674D02*
X12898634Y-20706722D01*
X12898634Y-20706722D02*
X12898634Y-20811484D01*
X12898634Y-20706722D02*
X12908158Y-20687674D01*
X12908158Y-20687674D02*
X12927205Y-20678150D01*
X12927205Y-20678150D02*
X12955777Y-20678150D01*
X12955777Y-20678150D02*
X12974824Y-20687674D01*
X12974824Y-20687674D02*
X12984348Y-20706722D01*
X12984348Y-20706722D02*
X12984348Y-20811484D01*
X13079586Y-20811484D02*
X13079586Y-20678150D01*
X13079586Y-20697198D02*
X13089110Y-20687674D01*
X13089110Y-20687674D02*
X13108158Y-20678150D01*
X13108158Y-20678150D02*
X13136729Y-20678150D01*
X13136729Y-20678150D02*
X13155777Y-20687674D01*
X13155777Y-20687674D02*
X13165301Y-20706722D01*
X13165301Y-20706722D02*
X13165301Y-20811484D01*
X13165301Y-20706722D02*
X13174824Y-20687674D01*
X13174824Y-20687674D02*
X13193872Y-20678150D01*
X13193872Y-20678150D02*
X13222443Y-20678150D01*
X13222443Y-20678150D02*
X13241491Y-20687674D01*
X13241491Y-20687674D02*
X13251015Y-20706722D01*
X13251015Y-20706722D02*
X13251015Y-20811484D01*
X13641491Y-20601960D02*
X13470063Y-20859103D01*
X13898634Y-20611484D02*
X13917682Y-20611484D01*
X13917682Y-20611484D02*
X13936729Y-20621008D01*
X13936729Y-20621008D02*
X13946253Y-20630531D01*
X13946253Y-20630531D02*
X13955777Y-20649579D01*
X13955777Y-20649579D02*
X13965301Y-20687674D01*
X13965301Y-20687674D02*
X13965301Y-20735293D01*
X13965301Y-20735293D02*
X13955777Y-20773389D01*
X13955777Y-20773389D02*
X13946253Y-20792436D01*
X13946253Y-20792436D02*
X13936729Y-20801960D01*
X13936729Y-20801960D02*
X13917682Y-20811484D01*
X13917682Y-20811484D02*
X13898634Y-20811484D01*
X13898634Y-20811484D02*
X13879586Y-20801960D01*
X13879586Y-20801960D02*
X13870063Y-20792436D01*
X13870063Y-20792436D02*
X13860539Y-20773389D01*
X13860539Y-20773389D02*
X13851015Y-20735293D01*
X13851015Y-20735293D02*
X13851015Y-20687674D01*
X13851015Y-20687674D02*
X13860539Y-20649579D01*
X13860539Y-20649579D02*
X13870063Y-20630531D01*
X13870063Y-20630531D02*
X13879586Y-20621008D01*
X13879586Y-20621008D02*
X13898634Y-20611484D01*
X14051015Y-20792436D02*
X14060539Y-20801960D01*
X14060539Y-20801960D02*
X14051015Y-20811484D01*
X14051015Y-20811484D02*
X14041491Y-20801960D01*
X14041491Y-20801960D02*
X14051015Y-20792436D01*
X14051015Y-20792436D02*
X14051015Y-20811484D01*
X14184348Y-20611484D02*
X14203396Y-20611484D01*
X14203396Y-20611484D02*
X14222444Y-20621008D01*
X14222444Y-20621008D02*
X14231967Y-20630531D01*
X14231967Y-20630531D02*
X14241491Y-20649579D01*
X14241491Y-20649579D02*
X14251015Y-20687674D01*
X14251015Y-20687674D02*
X14251015Y-20735293D01*
X14251015Y-20735293D02*
X14241491Y-20773389D01*
X14241491Y-20773389D02*
X14231967Y-20792436D01*
X14231967Y-20792436D02*
X14222444Y-20801960D01*
X14222444Y-20801960D02*
X14203396Y-20811484D01*
X14203396Y-20811484D02*
X14184348Y-20811484D01*
X14184348Y-20811484D02*
X14165301Y-20801960D01*
X14165301Y-20801960D02*
X14155777Y-20792436D01*
X14155777Y-20792436D02*
X14146253Y-20773389D01*
X14146253Y-20773389D02*
X14136729Y-20735293D01*
X14136729Y-20735293D02*
X14136729Y-20687674D01*
X14136729Y-20687674D02*
X14146253Y-20649579D01*
X14146253Y-20649579D02*
X14155777Y-20630531D01*
X14155777Y-20630531D02*
X14165301Y-20621008D01*
X14165301Y-20621008D02*
X14184348Y-20611484D01*
X14346253Y-20811484D02*
X14384348Y-20811484D01*
X14384348Y-20811484D02*
X14403396Y-20801960D01*
X14403396Y-20801960D02*
X14412920Y-20792436D01*
X14412920Y-20792436D02*
X14431967Y-20763865D01*
X14431967Y-20763865D02*
X14441491Y-20725770D01*
X14441491Y-20725770D02*
X14441491Y-20649579D01*
X14441491Y-20649579D02*
X14431967Y-20630531D01*
X14431967Y-20630531D02*
X14422444Y-20621008D01*
X14422444Y-20621008D02*
X14403396Y-20611484D01*
X14403396Y-20611484D02*
X14365301Y-20611484D01*
X14365301Y-20611484D02*
X14346253Y-20621008D01*
X14346253Y-20621008D02*
X14336729Y-20630531D01*
X14336729Y-20630531D02*
X14327206Y-20649579D01*
X14327206Y-20649579D02*
X14327206Y-20697198D01*
X14327206Y-20697198D02*
X14336729Y-20716246D01*
X14336729Y-20716246D02*
X14346253Y-20725770D01*
X14346253Y-20725770D02*
X14365301Y-20735293D01*
X14365301Y-20735293D02*
X14403396Y-20735293D01*
X14403396Y-20735293D02*
X14422444Y-20725770D01*
X14422444Y-20725770D02*
X14431967Y-20716246D01*
X14431967Y-20716246D02*
X14441491Y-20697198D01*
X14612920Y-20678150D02*
X14612920Y-20811484D01*
X14565301Y-20601960D02*
X14517682Y-20744817D01*
X14517682Y-20744817D02*
X14641491Y-20744817D01*
X14812920Y-20611484D02*
X14717682Y-20611484D01*
X14717682Y-20611484D02*
X14708158Y-20706722D01*
X14708158Y-20706722D02*
X14717682Y-20697198D01*
X14717682Y-20697198D02*
X14736729Y-20687674D01*
X14736729Y-20687674D02*
X14784348Y-20687674D01*
X14784348Y-20687674D02*
X14803396Y-20697198D01*
X14803396Y-20697198D02*
X14812920Y-20706722D01*
X14812920Y-20706722D02*
X14822444Y-20725770D01*
X14822444Y-20725770D02*
X14822444Y-20773389D01*
X14822444Y-20773389D02*
X14812920Y-20792436D01*
X14812920Y-20792436D02*
X14803396Y-20801960D01*
X14803396Y-20801960D02*
X14784348Y-20811484D01*
X14784348Y-20811484D02*
X14736729Y-20811484D01*
X14736729Y-20811484D02*
X14717682Y-20801960D01*
X14717682Y-20801960D02*
X14708158Y-20792436D01*
X14898634Y-20611484D02*
X14898634Y-20649579D01*
X14974825Y-20611484D02*
X14974825Y-20649579D01*
X15270063Y-20887674D02*
X15260539Y-20878150D01*
X15260539Y-20878150D02*
X15241491Y-20849579D01*
X15241491Y-20849579D02*
X15231968Y-20830531D01*
X15231968Y-20830531D02*
X15222444Y-20801960D01*
X15222444Y-20801960D02*
X15212920Y-20754341D01*
X15212920Y-20754341D02*
X15212920Y-20716246D01*
X15212920Y-20716246D02*
X15222444Y-20668627D01*
X15222444Y-20668627D02*
X15231968Y-20640055D01*
X15231968Y-20640055D02*
X15241491Y-20621008D01*
X15241491Y-20621008D02*
X15260539Y-20592436D01*
X15260539Y-20592436D02*
X15270063Y-20582912D01*
X15431968Y-20678150D02*
X15431968Y-20811484D01*
X15384348Y-20601960D02*
X15336729Y-20744817D01*
X15336729Y-20744817D02*
X15460539Y-20744817D01*
X15689110Y-20811484D02*
X15689110Y-20611484D01*
X15774825Y-20811484D02*
X15774825Y-20706722D01*
X15774825Y-20706722D02*
X15765301Y-20687674D01*
X15765301Y-20687674D02*
X15746253Y-20678150D01*
X15746253Y-20678150D02*
X15717682Y-20678150D01*
X15717682Y-20678150D02*
X15698634Y-20687674D01*
X15698634Y-20687674D02*
X15689110Y-20697198D01*
X15898634Y-20811484D02*
X15879587Y-20801960D01*
X15879587Y-20801960D02*
X15870063Y-20792436D01*
X15870063Y-20792436D02*
X15860539Y-20773389D01*
X15860539Y-20773389D02*
X15860539Y-20716246D01*
X15860539Y-20716246D02*
X15870063Y-20697198D01*
X15870063Y-20697198D02*
X15879587Y-20687674D01*
X15879587Y-20687674D02*
X15898634Y-20678150D01*
X15898634Y-20678150D02*
X15927206Y-20678150D01*
X15927206Y-20678150D02*
X15946253Y-20687674D01*
X15946253Y-20687674D02*
X15955777Y-20697198D01*
X15955777Y-20697198D02*
X15965301Y-20716246D01*
X15965301Y-20716246D02*
X15965301Y-20773389D01*
X15965301Y-20773389D02*
X15955777Y-20792436D01*
X15955777Y-20792436D02*
X15946253Y-20801960D01*
X15946253Y-20801960D02*
X15927206Y-20811484D01*
X15927206Y-20811484D02*
X15898634Y-20811484D01*
X16079587Y-20811484D02*
X16060539Y-20801960D01*
X16060539Y-20801960D02*
X16051015Y-20782912D01*
X16051015Y-20782912D02*
X16051015Y-20611484D01*
X16231968Y-20801960D02*
X16212920Y-20811484D01*
X16212920Y-20811484D02*
X16174825Y-20811484D01*
X16174825Y-20811484D02*
X16155777Y-20801960D01*
X16155777Y-20801960D02*
X16146253Y-20782912D01*
X16146253Y-20782912D02*
X16146253Y-20706722D01*
X16146253Y-20706722D02*
X16155777Y-20687674D01*
X16155777Y-20687674D02*
X16174825Y-20678150D01*
X16174825Y-20678150D02*
X16212920Y-20678150D01*
X16212920Y-20678150D02*
X16231968Y-20687674D01*
X16231968Y-20687674D02*
X16241491Y-20706722D01*
X16241491Y-20706722D02*
X16241491Y-20725770D01*
X16241491Y-20725770D02*
X16146253Y-20744817D01*
X16317682Y-20801960D02*
X16336730Y-20811484D01*
X16336730Y-20811484D02*
X16374825Y-20811484D01*
X16374825Y-20811484D02*
X16393872Y-20801960D01*
X16393872Y-20801960D02*
X16403396Y-20782912D01*
X16403396Y-20782912D02*
X16403396Y-20773389D01*
X16403396Y-20773389D02*
X16393872Y-20754341D01*
X16393872Y-20754341D02*
X16374825Y-20744817D01*
X16374825Y-20744817D02*
X16346253Y-20744817D01*
X16346253Y-20744817D02*
X16327206Y-20735293D01*
X16327206Y-20735293D02*
X16317682Y-20716246D01*
X16317682Y-20716246D02*
X16317682Y-20706722D01*
X16317682Y-20706722D02*
X16327206Y-20687674D01*
X16327206Y-20687674D02*
X16346253Y-20678150D01*
X16346253Y-20678150D02*
X16374825Y-20678150D01*
X16374825Y-20678150D02*
X16393872Y-20687674D01*
X16470063Y-20887674D02*
X16479587Y-20878150D01*
X16479587Y-20878150D02*
X16498634Y-20849579D01*
X16498634Y-20849579D02*
X16508158Y-20830531D01*
X16508158Y-20830531D02*
X16517682Y-20801960D01*
X16517682Y-20801960D02*
X16527206Y-20754341D01*
X16527206Y-20754341D02*
X16527206Y-20716246D01*
X16527206Y-20716246D02*
X16517682Y-20668627D01*
X16517682Y-20668627D02*
X16508158Y-20640055D01*
X16508158Y-20640055D02*
X16498634Y-20621008D01*
X16498634Y-20621008D02*
X16479587Y-20592436D01*
X16479587Y-20592436D02*
X16470063Y-20582912D01*
X16831968Y-20887674D02*
X16822444Y-20878150D01*
X16822444Y-20878150D02*
X16803396Y-20849579D01*
X16803396Y-20849579D02*
X16793873Y-20830531D01*
X16793873Y-20830531D02*
X16784349Y-20801960D01*
X16784349Y-20801960D02*
X16774825Y-20754341D01*
X16774825Y-20754341D02*
X16774825Y-20716246D01*
X16774825Y-20716246D02*
X16784349Y-20668627D01*
X16784349Y-20668627D02*
X16793873Y-20640055D01*
X16793873Y-20640055D02*
X16803396Y-20621008D01*
X16803396Y-20621008D02*
X16822444Y-20592436D01*
X16822444Y-20592436D02*
X16831968Y-20582912D01*
X16908158Y-20678150D02*
X16908158Y-20811484D01*
X16908158Y-20697198D02*
X16917682Y-20687674D01*
X16917682Y-20687674D02*
X16936730Y-20678150D01*
X16936730Y-20678150D02*
X16965301Y-20678150D01*
X16965301Y-20678150D02*
X16984349Y-20687674D01*
X16984349Y-20687674D02*
X16993873Y-20706722D01*
X16993873Y-20706722D02*
X16993873Y-20811484D01*
X17117682Y-20811484D02*
X17098634Y-20801960D01*
X17098634Y-20801960D02*
X17089111Y-20792436D01*
X17089111Y-20792436D02*
X17079587Y-20773389D01*
X17079587Y-20773389D02*
X17079587Y-20716246D01*
X17079587Y-20716246D02*
X17089111Y-20697198D01*
X17089111Y-20697198D02*
X17098634Y-20687674D01*
X17098634Y-20687674D02*
X17117682Y-20678150D01*
X17117682Y-20678150D02*
X17146254Y-20678150D01*
X17146254Y-20678150D02*
X17165301Y-20687674D01*
X17165301Y-20687674D02*
X17174825Y-20697198D01*
X17174825Y-20697198D02*
X17184349Y-20716246D01*
X17184349Y-20716246D02*
X17184349Y-20773389D01*
X17184349Y-20773389D02*
X17174825Y-20792436D01*
X17174825Y-20792436D02*
X17165301Y-20801960D01*
X17165301Y-20801960D02*
X17146254Y-20811484D01*
X17146254Y-20811484D02*
X17117682Y-20811484D01*
X17241492Y-20678150D02*
X17317682Y-20678150D01*
X17270063Y-20611484D02*
X17270063Y-20782912D01*
X17270063Y-20782912D02*
X17279587Y-20801960D01*
X17279587Y-20801960D02*
X17298634Y-20811484D01*
X17298634Y-20811484D02*
X17317682Y-20811484D01*
X17536730Y-20678150D02*
X17536730Y-20878150D01*
X17536730Y-20687674D02*
X17555777Y-20678150D01*
X17555777Y-20678150D02*
X17593873Y-20678150D01*
X17593873Y-20678150D02*
X17612920Y-20687674D01*
X17612920Y-20687674D02*
X17622444Y-20697198D01*
X17622444Y-20697198D02*
X17631968Y-20716246D01*
X17631968Y-20716246D02*
X17631968Y-20773389D01*
X17631968Y-20773389D02*
X17622444Y-20792436D01*
X17622444Y-20792436D02*
X17612920Y-20801960D01*
X17612920Y-20801960D02*
X17593873Y-20811484D01*
X17593873Y-20811484D02*
X17555777Y-20811484D01*
X17555777Y-20811484D02*
X17536730Y-20801960D01*
X17746254Y-20811484D02*
X17727206Y-20801960D01*
X17727206Y-20801960D02*
X17717682Y-20782912D01*
X17717682Y-20782912D02*
X17717682Y-20611484D01*
X17908158Y-20811484D02*
X17908158Y-20706722D01*
X17908158Y-20706722D02*
X17898635Y-20687674D01*
X17898635Y-20687674D02*
X17879587Y-20678150D01*
X17879587Y-20678150D02*
X17841492Y-20678150D01*
X17841492Y-20678150D02*
X17822444Y-20687674D01*
X17908158Y-20801960D02*
X17889111Y-20811484D01*
X17889111Y-20811484D02*
X17841492Y-20811484D01*
X17841492Y-20811484D02*
X17822444Y-20801960D01*
X17822444Y-20801960D02*
X17812920Y-20782912D01*
X17812920Y-20782912D02*
X17812920Y-20763865D01*
X17812920Y-20763865D02*
X17822444Y-20744817D01*
X17822444Y-20744817D02*
X17841492Y-20735293D01*
X17841492Y-20735293D02*
X17889111Y-20735293D01*
X17889111Y-20735293D02*
X17908158Y-20725770D01*
X17974825Y-20678150D02*
X18051015Y-20678150D01*
X18003396Y-20611484D02*
X18003396Y-20782912D01*
X18003396Y-20782912D02*
X18012920Y-20801960D01*
X18012920Y-20801960D02*
X18031968Y-20811484D01*
X18031968Y-20811484D02*
X18051015Y-20811484D01*
X18193873Y-20801960D02*
X18174825Y-20811484D01*
X18174825Y-20811484D02*
X18136730Y-20811484D01*
X18136730Y-20811484D02*
X18117682Y-20801960D01*
X18117682Y-20801960D02*
X18108158Y-20782912D01*
X18108158Y-20782912D02*
X18108158Y-20706722D01*
X18108158Y-20706722D02*
X18117682Y-20687674D01*
X18117682Y-20687674D02*
X18136730Y-20678150D01*
X18136730Y-20678150D02*
X18174825Y-20678150D01*
X18174825Y-20678150D02*
X18193873Y-20687674D01*
X18193873Y-20687674D02*
X18203396Y-20706722D01*
X18203396Y-20706722D02*
X18203396Y-20725770D01*
X18203396Y-20725770D02*
X18108158Y-20744817D01*
X18374825Y-20811484D02*
X18374825Y-20611484D01*
X18374825Y-20801960D02*
X18355777Y-20811484D01*
X18355777Y-20811484D02*
X18317682Y-20811484D01*
X18317682Y-20811484D02*
X18298635Y-20801960D01*
X18298635Y-20801960D02*
X18289111Y-20792436D01*
X18289111Y-20792436D02*
X18279587Y-20773389D01*
X18279587Y-20773389D02*
X18279587Y-20716246D01*
X18279587Y-20716246D02*
X18289111Y-20697198D01*
X18289111Y-20697198D02*
X18298635Y-20687674D01*
X18298635Y-20687674D02*
X18317682Y-20678150D01*
X18317682Y-20678150D02*
X18355777Y-20678150D01*
X18355777Y-20678150D02*
X18374825Y-20687674D01*
X18451016Y-20887674D02*
X18460539Y-20878150D01*
X18460539Y-20878150D02*
X18479587Y-20849579D01*
X18479587Y-20849579D02*
X18489111Y-20830531D01*
X18489111Y-20830531D02*
X18498635Y-20801960D01*
X18498635Y-20801960D02*
X18508158Y-20754341D01*
X18508158Y-20754341D02*
X18508158Y-20716246D01*
X18508158Y-20716246D02*
X18498635Y-20668627D01*
X18498635Y-20668627D02*
X18489111Y-20640055D01*
X18489111Y-20640055D02*
X18479587Y-20621008D01*
X18479587Y-20621008D02*
X18460539Y-20592436D01*
X18460539Y-20592436D02*
X18451016Y-20582912D01*
X11695000Y-21040000D02*
G75*
G02*
X11495000Y-21040000I-100000J0D01*
G01*
X11495000Y-21040000D02*
G75*
G02*
X11695000Y-21040000I100000J0D01*
G01*
X12041491Y-20998150D02*
X12041491Y-21131484D01*
X11993872Y-20921960D02*
X11946253Y-21064817D01*
X11946253Y-21064817D02*
X12070062Y-21064817D01*
X12146253Y-21112436D02*
X12155777Y-21121960D01*
X12155777Y-21121960D02*
X12146253Y-21131484D01*
X12146253Y-21131484D02*
X12136729Y-21121960D01*
X12136729Y-21121960D02*
X12146253Y-21112436D01*
X12146253Y-21112436D02*
X12146253Y-21131484D01*
X12231967Y-20950531D02*
X12241491Y-20941008D01*
X12241491Y-20941008D02*
X12260539Y-20931484D01*
X12260539Y-20931484D02*
X12308158Y-20931484D01*
X12308158Y-20931484D02*
X12327205Y-20941008D01*
X12327205Y-20941008D02*
X12336729Y-20950531D01*
X12336729Y-20950531D02*
X12346253Y-20969579D01*
X12346253Y-20969579D02*
X12346253Y-20988627D01*
X12346253Y-20988627D02*
X12336729Y-21017198D01*
X12336729Y-21017198D02*
X12222443Y-21131484D01*
X12222443Y-21131484D02*
X12346253Y-21131484D01*
X12527205Y-20931484D02*
X12431967Y-20931484D01*
X12431967Y-20931484D02*
X12422443Y-21026722D01*
X12422443Y-21026722D02*
X12431967Y-21017198D01*
X12431967Y-21017198D02*
X12451015Y-21007674D01*
X12451015Y-21007674D02*
X12498634Y-21007674D01*
X12498634Y-21007674D02*
X12517682Y-21017198D01*
X12517682Y-21017198D02*
X12527205Y-21026722D01*
X12527205Y-21026722D02*
X12536729Y-21045770D01*
X12536729Y-21045770D02*
X12536729Y-21093389D01*
X12536729Y-21093389D02*
X12527205Y-21112436D01*
X12527205Y-21112436D02*
X12517682Y-21121960D01*
X12517682Y-21121960D02*
X12498634Y-21131484D01*
X12498634Y-21131484D02*
X12451015Y-21131484D01*
X12451015Y-21131484D02*
X12431967Y-21121960D01*
X12431967Y-21121960D02*
X12422443Y-21112436D01*
X12660539Y-20931484D02*
X12679586Y-20931484D01*
X12679586Y-20931484D02*
X12698634Y-20941008D01*
X12698634Y-20941008D02*
X12708158Y-20950531D01*
X12708158Y-20950531D02*
X12717682Y-20969579D01*
X12717682Y-20969579D02*
X12727205Y-21007674D01*
X12727205Y-21007674D02*
X12727205Y-21055293D01*
X12727205Y-21055293D02*
X12717682Y-21093389D01*
X12717682Y-21093389D02*
X12708158Y-21112436D01*
X12708158Y-21112436D02*
X12698634Y-21121960D01*
X12698634Y-21121960D02*
X12679586Y-21131484D01*
X12679586Y-21131484D02*
X12660539Y-21131484D01*
X12660539Y-21131484D02*
X12641491Y-21121960D01*
X12641491Y-21121960D02*
X12631967Y-21112436D01*
X12631967Y-21112436D02*
X12622443Y-21093389D01*
X12622443Y-21093389D02*
X12612920Y-21055293D01*
X12612920Y-21055293D02*
X12612920Y-21007674D01*
X12612920Y-21007674D02*
X12622443Y-20969579D01*
X12622443Y-20969579D02*
X12631967Y-20950531D01*
X12631967Y-20950531D02*
X12641491Y-20941008D01*
X12641491Y-20941008D02*
X12660539Y-20931484D01*
X12812920Y-21131484D02*
X12812920Y-20998150D01*
X12812920Y-21017198D02*
X12822443Y-21007674D01*
X12822443Y-21007674D02*
X12841491Y-20998150D01*
X12841491Y-20998150D02*
X12870063Y-20998150D01*
X12870063Y-20998150D02*
X12889110Y-21007674D01*
X12889110Y-21007674D02*
X12898634Y-21026722D01*
X12898634Y-21026722D02*
X12898634Y-21131484D01*
X12898634Y-21026722D02*
X12908158Y-21007674D01*
X12908158Y-21007674D02*
X12927205Y-20998150D01*
X12927205Y-20998150D02*
X12955777Y-20998150D01*
X12955777Y-20998150D02*
X12974824Y-21007674D01*
X12974824Y-21007674D02*
X12984348Y-21026722D01*
X12984348Y-21026722D02*
X12984348Y-21131484D01*
X13079586Y-21131484D02*
X13079586Y-20998150D01*
X13079586Y-21017198D02*
X13089110Y-21007674D01*
X13089110Y-21007674D02*
X13108158Y-20998150D01*
X13108158Y-20998150D02*
X13136729Y-20998150D01*
X13136729Y-20998150D02*
X13155777Y-21007674D01*
X13155777Y-21007674D02*
X13165301Y-21026722D01*
X13165301Y-21026722D02*
X13165301Y-21131484D01*
X13165301Y-21026722D02*
X13174824Y-21007674D01*
X13174824Y-21007674D02*
X13193872Y-20998150D01*
X13193872Y-20998150D02*
X13222443Y-20998150D01*
X13222443Y-20998150D02*
X13241491Y-21007674D01*
X13241491Y-21007674D02*
X13251015Y-21026722D01*
X13251015Y-21026722D02*
X13251015Y-21131484D01*
X13641491Y-20921960D02*
X13470063Y-21179103D01*
X13898634Y-20931484D02*
X13917682Y-20931484D01*
X13917682Y-20931484D02*
X13936729Y-20941008D01*
X13936729Y-20941008D02*
X13946253Y-20950531D01*
X13946253Y-20950531D02*
X13955777Y-20969579D01*
X13955777Y-20969579D02*
X13965301Y-21007674D01*
X13965301Y-21007674D02*
X13965301Y-21055293D01*
X13965301Y-21055293D02*
X13955777Y-21093389D01*
X13955777Y-21093389D02*
X13946253Y-21112436D01*
X13946253Y-21112436D02*
X13936729Y-21121960D01*
X13936729Y-21121960D02*
X13917682Y-21131484D01*
X13917682Y-21131484D02*
X13898634Y-21131484D01*
X13898634Y-21131484D02*
X13879586Y-21121960D01*
X13879586Y-21121960D02*
X13870063Y-21112436D01*
X13870063Y-21112436D02*
X13860539Y-21093389D01*
X13860539Y-21093389D02*
X13851015Y-21055293D01*
X13851015Y-21055293D02*
X13851015Y-21007674D01*
X13851015Y-21007674D02*
X13860539Y-20969579D01*
X13860539Y-20969579D02*
X13870063Y-20950531D01*
X13870063Y-20950531D02*
X13879586Y-20941008D01*
X13879586Y-20941008D02*
X13898634Y-20931484D01*
X14051015Y-21112436D02*
X14060539Y-21121960D01*
X14060539Y-21121960D02*
X14051015Y-21131484D01*
X14051015Y-21131484D02*
X14041491Y-21121960D01*
X14041491Y-21121960D02*
X14051015Y-21112436D01*
X14051015Y-21112436D02*
X14051015Y-21131484D01*
X14251015Y-21131484D02*
X14136729Y-21131484D01*
X14193872Y-21131484D02*
X14193872Y-20931484D01*
X14193872Y-20931484D02*
X14174825Y-20960055D01*
X14174825Y-20960055D02*
X14155777Y-20979103D01*
X14155777Y-20979103D02*
X14136729Y-20988627D01*
X14422444Y-20931484D02*
X14384348Y-20931484D01*
X14384348Y-20931484D02*
X14365301Y-20941008D01*
X14365301Y-20941008D02*
X14355777Y-20950531D01*
X14355777Y-20950531D02*
X14336729Y-20979103D01*
X14336729Y-20979103D02*
X14327206Y-21017198D01*
X14327206Y-21017198D02*
X14327206Y-21093389D01*
X14327206Y-21093389D02*
X14336729Y-21112436D01*
X14336729Y-21112436D02*
X14346253Y-21121960D01*
X14346253Y-21121960D02*
X14365301Y-21131484D01*
X14365301Y-21131484D02*
X14403396Y-21131484D01*
X14403396Y-21131484D02*
X14422444Y-21121960D01*
X14422444Y-21121960D02*
X14431967Y-21112436D01*
X14431967Y-21112436D02*
X14441491Y-21093389D01*
X14441491Y-21093389D02*
X14441491Y-21045770D01*
X14441491Y-21045770D02*
X14431967Y-21026722D01*
X14431967Y-21026722D02*
X14422444Y-21017198D01*
X14422444Y-21017198D02*
X14403396Y-21007674D01*
X14403396Y-21007674D02*
X14365301Y-21007674D01*
X14365301Y-21007674D02*
X14346253Y-21017198D01*
X14346253Y-21017198D02*
X14336729Y-21026722D01*
X14336729Y-21026722D02*
X14327206Y-21045770D01*
X14508158Y-20931484D02*
X14641491Y-20931484D01*
X14641491Y-20931484D02*
X14555777Y-21131484D01*
X14698634Y-20931484D02*
X14822444Y-20931484D01*
X14822444Y-20931484D02*
X14755777Y-21007674D01*
X14755777Y-21007674D02*
X14784348Y-21007674D01*
X14784348Y-21007674D02*
X14803396Y-21017198D01*
X14803396Y-21017198D02*
X14812920Y-21026722D01*
X14812920Y-21026722D02*
X14822444Y-21045770D01*
X14822444Y-21045770D02*
X14822444Y-21093389D01*
X14822444Y-21093389D02*
X14812920Y-21112436D01*
X14812920Y-21112436D02*
X14803396Y-21121960D01*
X14803396Y-21121960D02*
X14784348Y-21131484D01*
X14784348Y-21131484D02*
X14727206Y-21131484D01*
X14727206Y-21131484D02*
X14708158Y-21121960D01*
X14708158Y-21121960D02*
X14698634Y-21112436D01*
X14898634Y-20931484D02*
X14898634Y-20969579D01*
X14974825Y-20931484D02*
X14974825Y-20969579D01*
X15270063Y-21207674D02*
X15260539Y-21198150D01*
X15260539Y-21198150D02*
X15241491Y-21169579D01*
X15241491Y-21169579D02*
X15231968Y-21150531D01*
X15231968Y-21150531D02*
X15222444Y-21121960D01*
X15222444Y-21121960D02*
X15212920Y-21074341D01*
X15212920Y-21074341D02*
X15212920Y-21036246D01*
X15212920Y-21036246D02*
X15222444Y-20988627D01*
X15222444Y-20988627D02*
X15231968Y-20960055D01*
X15231968Y-20960055D02*
X15241491Y-20941008D01*
X15241491Y-20941008D02*
X15260539Y-20912436D01*
X15260539Y-20912436D02*
X15270063Y-20902912D01*
X15431968Y-20998150D02*
X15431968Y-21131484D01*
X15384348Y-20921960D02*
X15336729Y-21064817D01*
X15336729Y-21064817D02*
X15460539Y-21064817D01*
X15689110Y-21131484D02*
X15689110Y-20931484D01*
X15774825Y-21131484D02*
X15774825Y-21026722D01*
X15774825Y-21026722D02*
X15765301Y-21007674D01*
X15765301Y-21007674D02*
X15746253Y-20998150D01*
X15746253Y-20998150D02*
X15717682Y-20998150D01*
X15717682Y-20998150D02*
X15698634Y-21007674D01*
X15698634Y-21007674D02*
X15689110Y-21017198D01*
X15898634Y-21131484D02*
X15879587Y-21121960D01*
X15879587Y-21121960D02*
X15870063Y-21112436D01*
X15870063Y-21112436D02*
X15860539Y-21093389D01*
X15860539Y-21093389D02*
X15860539Y-21036246D01*
X15860539Y-21036246D02*
X15870063Y-21017198D01*
X15870063Y-21017198D02*
X15879587Y-21007674D01*
X15879587Y-21007674D02*
X15898634Y-20998150D01*
X15898634Y-20998150D02*
X15927206Y-20998150D01*
X15927206Y-20998150D02*
X15946253Y-21007674D01*
X15946253Y-21007674D02*
X15955777Y-21017198D01*
X15955777Y-21017198D02*
X15965301Y-21036246D01*
X15965301Y-21036246D02*
X15965301Y-21093389D01*
X15965301Y-21093389D02*
X15955777Y-21112436D01*
X15955777Y-21112436D02*
X15946253Y-21121960D01*
X15946253Y-21121960D02*
X15927206Y-21131484D01*
X15927206Y-21131484D02*
X15898634Y-21131484D01*
X16079587Y-21131484D02*
X16060539Y-21121960D01*
X16060539Y-21121960D02*
X16051015Y-21102912D01*
X16051015Y-21102912D02*
X16051015Y-20931484D01*
X16231968Y-21121960D02*
X16212920Y-21131484D01*
X16212920Y-21131484D02*
X16174825Y-21131484D01*
X16174825Y-21131484D02*
X16155777Y-21121960D01*
X16155777Y-21121960D02*
X16146253Y-21102912D01*
X16146253Y-21102912D02*
X16146253Y-21026722D01*
X16146253Y-21026722D02*
X16155777Y-21007674D01*
X16155777Y-21007674D02*
X16174825Y-20998150D01*
X16174825Y-20998150D02*
X16212920Y-20998150D01*
X16212920Y-20998150D02*
X16231968Y-21007674D01*
X16231968Y-21007674D02*
X16241491Y-21026722D01*
X16241491Y-21026722D02*
X16241491Y-21045770D01*
X16241491Y-21045770D02*
X16146253Y-21064817D01*
X16317682Y-21121960D02*
X16336730Y-21131484D01*
X16336730Y-21131484D02*
X16374825Y-21131484D01*
X16374825Y-21131484D02*
X16393872Y-21121960D01*
X16393872Y-21121960D02*
X16403396Y-21102912D01*
X16403396Y-21102912D02*
X16403396Y-21093389D01*
X16403396Y-21093389D02*
X16393872Y-21074341D01*
X16393872Y-21074341D02*
X16374825Y-21064817D01*
X16374825Y-21064817D02*
X16346253Y-21064817D01*
X16346253Y-21064817D02*
X16327206Y-21055293D01*
X16327206Y-21055293D02*
X16317682Y-21036246D01*
X16317682Y-21036246D02*
X16317682Y-21026722D01*
X16317682Y-21026722D02*
X16327206Y-21007674D01*
X16327206Y-21007674D02*
X16346253Y-20998150D01*
X16346253Y-20998150D02*
X16374825Y-20998150D01*
X16374825Y-20998150D02*
X16393872Y-21007674D01*
X16470063Y-21207674D02*
X16479587Y-21198150D01*
X16479587Y-21198150D02*
X16498634Y-21169579D01*
X16498634Y-21169579D02*
X16508158Y-21150531D01*
X16508158Y-21150531D02*
X16517682Y-21121960D01*
X16517682Y-21121960D02*
X16527206Y-21074341D01*
X16527206Y-21074341D02*
X16527206Y-21036246D01*
X16527206Y-21036246D02*
X16517682Y-20988627D01*
X16517682Y-20988627D02*
X16508158Y-20960055D01*
X16508158Y-20960055D02*
X16498634Y-20941008D01*
X16498634Y-20941008D02*
X16479587Y-20912436D01*
X16479587Y-20912436D02*
X16470063Y-20902912D01*
X16831968Y-21207674D02*
X16822444Y-21198150D01*
X16822444Y-21198150D02*
X16803396Y-21169579D01*
X16803396Y-21169579D02*
X16793873Y-21150531D01*
X16793873Y-21150531D02*
X16784349Y-21121960D01*
X16784349Y-21121960D02*
X16774825Y-21074341D01*
X16774825Y-21074341D02*
X16774825Y-21036246D01*
X16774825Y-21036246D02*
X16784349Y-20988627D01*
X16784349Y-20988627D02*
X16793873Y-20960055D01*
X16793873Y-20960055D02*
X16803396Y-20941008D01*
X16803396Y-20941008D02*
X16822444Y-20912436D01*
X16822444Y-20912436D02*
X16831968Y-20902912D01*
X16908158Y-20998150D02*
X16908158Y-21131484D01*
X16908158Y-21017198D02*
X16917682Y-21007674D01*
X16917682Y-21007674D02*
X16936730Y-20998150D01*
X16936730Y-20998150D02*
X16965301Y-20998150D01*
X16965301Y-20998150D02*
X16984349Y-21007674D01*
X16984349Y-21007674D02*
X16993873Y-21026722D01*
X16993873Y-21026722D02*
X16993873Y-21131484D01*
X17117682Y-21131484D02*
X17098634Y-21121960D01*
X17098634Y-21121960D02*
X17089111Y-21112436D01*
X17089111Y-21112436D02*
X17079587Y-21093389D01*
X17079587Y-21093389D02*
X17079587Y-21036246D01*
X17079587Y-21036246D02*
X17089111Y-21017198D01*
X17089111Y-21017198D02*
X17098634Y-21007674D01*
X17098634Y-21007674D02*
X17117682Y-20998150D01*
X17117682Y-20998150D02*
X17146254Y-20998150D01*
X17146254Y-20998150D02*
X17165301Y-21007674D01*
X17165301Y-21007674D02*
X17174825Y-21017198D01*
X17174825Y-21017198D02*
X17184349Y-21036246D01*
X17184349Y-21036246D02*
X17184349Y-21093389D01*
X17184349Y-21093389D02*
X17174825Y-21112436D01*
X17174825Y-21112436D02*
X17165301Y-21121960D01*
X17165301Y-21121960D02*
X17146254Y-21131484D01*
X17146254Y-21131484D02*
X17117682Y-21131484D01*
X17241492Y-20998150D02*
X17317682Y-20998150D01*
X17270063Y-20931484D02*
X17270063Y-21102912D01*
X17270063Y-21102912D02*
X17279587Y-21121960D01*
X17279587Y-21121960D02*
X17298634Y-21131484D01*
X17298634Y-21131484D02*
X17317682Y-21131484D01*
X17536730Y-20998150D02*
X17536730Y-21198150D01*
X17536730Y-21007674D02*
X17555777Y-20998150D01*
X17555777Y-20998150D02*
X17593873Y-20998150D01*
X17593873Y-20998150D02*
X17612920Y-21007674D01*
X17612920Y-21007674D02*
X17622444Y-21017198D01*
X17622444Y-21017198D02*
X17631968Y-21036246D01*
X17631968Y-21036246D02*
X17631968Y-21093389D01*
X17631968Y-21093389D02*
X17622444Y-21112436D01*
X17622444Y-21112436D02*
X17612920Y-21121960D01*
X17612920Y-21121960D02*
X17593873Y-21131484D01*
X17593873Y-21131484D02*
X17555777Y-21131484D01*
X17555777Y-21131484D02*
X17536730Y-21121960D01*
X17746254Y-21131484D02*
X17727206Y-21121960D01*
X17727206Y-21121960D02*
X17717682Y-21102912D01*
X17717682Y-21102912D02*
X17717682Y-20931484D01*
X17908158Y-21131484D02*
X17908158Y-21026722D01*
X17908158Y-21026722D02*
X17898635Y-21007674D01*
X17898635Y-21007674D02*
X17879587Y-20998150D01*
X17879587Y-20998150D02*
X17841492Y-20998150D01*
X17841492Y-20998150D02*
X17822444Y-21007674D01*
X17908158Y-21121960D02*
X17889111Y-21131484D01*
X17889111Y-21131484D02*
X17841492Y-21131484D01*
X17841492Y-21131484D02*
X17822444Y-21121960D01*
X17822444Y-21121960D02*
X17812920Y-21102912D01*
X17812920Y-21102912D02*
X17812920Y-21083865D01*
X17812920Y-21083865D02*
X17822444Y-21064817D01*
X17822444Y-21064817D02*
X17841492Y-21055293D01*
X17841492Y-21055293D02*
X17889111Y-21055293D01*
X17889111Y-21055293D02*
X17908158Y-21045770D01*
X17974825Y-20998150D02*
X18051015Y-20998150D01*
X18003396Y-20931484D02*
X18003396Y-21102912D01*
X18003396Y-21102912D02*
X18012920Y-21121960D01*
X18012920Y-21121960D02*
X18031968Y-21131484D01*
X18031968Y-21131484D02*
X18051015Y-21131484D01*
X18193873Y-21121960D02*
X18174825Y-21131484D01*
X18174825Y-21131484D02*
X18136730Y-21131484D01*
X18136730Y-21131484D02*
X18117682Y-21121960D01*
X18117682Y-21121960D02*
X18108158Y-21102912D01*
X18108158Y-21102912D02*
X18108158Y-21026722D01*
X18108158Y-21026722D02*
X18117682Y-21007674D01*
X18117682Y-21007674D02*
X18136730Y-20998150D01*
X18136730Y-20998150D02*
X18174825Y-20998150D01*
X18174825Y-20998150D02*
X18193873Y-21007674D01*
X18193873Y-21007674D02*
X18203396Y-21026722D01*
X18203396Y-21026722D02*
X18203396Y-21045770D01*
X18203396Y-21045770D02*
X18108158Y-21064817D01*
X18374825Y-21131484D02*
X18374825Y-20931484D01*
X18374825Y-21121960D02*
X18355777Y-21131484D01*
X18355777Y-21131484D02*
X18317682Y-21131484D01*
X18317682Y-21131484D02*
X18298635Y-21121960D01*
X18298635Y-21121960D02*
X18289111Y-21112436D01*
X18289111Y-21112436D02*
X18279587Y-21093389D01*
X18279587Y-21093389D02*
X18279587Y-21036246D01*
X18279587Y-21036246D02*
X18289111Y-21017198D01*
X18289111Y-21017198D02*
X18298635Y-21007674D01*
X18298635Y-21007674D02*
X18317682Y-20998150D01*
X18317682Y-20998150D02*
X18355777Y-20998150D01*
X18355777Y-20998150D02*
X18374825Y-21007674D01*
X18451016Y-21207674D02*
X18460539Y-21198150D01*
X18460539Y-21198150D02*
X18479587Y-21169579D01*
X18479587Y-21169579D02*
X18489111Y-21150531D01*
X18489111Y-21150531D02*
X18498635Y-21121960D01*
X18498635Y-21121960D02*
X18508158Y-21074341D01*
X18508158Y-21074341D02*
X18508158Y-21036246D01*
X18508158Y-21036246D02*
X18498635Y-20988627D01*
X18498635Y-20988627D02*
X18489111Y-20960055D01*
X18489111Y-20960055D02*
X18479587Y-20941008D01*
X18479587Y-20941008D02*
X18460539Y-20912436D01*
X18460539Y-20912436D02*
X18451016Y-20902912D01*
M02*
