G04 #@! TF.GenerationSoftware,KiCad,Pcbnew,8.0.3*
G04 #@! TF.CreationDate,2025-04-07T19:30:46+02:00*
G04 #@! TF.ProjectId,TIDA-PowerPack,54494441-2d50-46f7-9765-725061636b2e,rev?*
G04 #@! TF.SameCoordinates,Original*
G04 #@! TF.FileFunction,Soldermask,Top*
G04 #@! TF.FilePolarity,Negative*
%FSLAX46Y46*%
G04 Gerber Fmt 4.6, Leading zero omitted, Abs format (unit mm)*
G04 Created by KiCad (PCBNEW 8.0.3) date 2025-04-07 19:30:46*
%MOMM*%
%LPD*%
G01*
G04 APERTURE LIST*
G04 Aperture macros list*
%AMRoundRect*
0 Rectangle with rounded corners*
0 $1 Rounding radius*
0 $2 $3 $4 $5 $6 $7 $8 $9 X,Y pos of 4 corners*
0 Add a 4 corners polygon primitive as box body*
4,1,4,$2,$3,$4,$5,$6,$7,$8,$9,$2,$3,0*
0 Add four circle primitives for the rounded corners*
1,1,$1+$1,$2,$3*
1,1,$1+$1,$4,$5*
1,1,$1+$1,$6,$7*
1,1,$1+$1,$8,$9*
0 Add four rect primitives between the rounded corners*
20,1,$1+$1,$2,$3,$4,$5,0*
20,1,$1+$1,$4,$5,$6,$7,0*
20,1,$1+$1,$6,$7,$8,$9,0*
20,1,$1+$1,$8,$9,$2,$3,0*%
%AMFreePoly0*
4,1,12,0.100003,0.550001,0.100000,-0.050001,0.050000,-0.100003,-0.800001,-0.100000,-0.849998,-0.050001,-0.849998,0.049999,-0.799998,0.099999,-0.100000,0.099999,-0.100000,0.550001,-0.050000,0.600001,0.050000,0.600001,0.100003,0.550001,0.100003,0.550001,$1*%
%AMFreePoly1*
4,1,12,0.100000,0.050001,0.100000,-0.550001,0.050000,-0.600001,-0.050000,-0.600001,-0.100000,-0.550001,-0.100000,-0.099999,-0.749998,-0.099999,-0.799998,-0.049999,-0.799998,0.050001,-0.750001,0.100000,0.050000,0.100000,0.100000,0.050001,0.100000,0.050001,$1*%
%AMFreePoly2*
4,1,12,0.750001,0.100000,0.799998,0.050001,0.799998,-0.049999,0.749998,-0.099999,0.100000,-0.099999,0.100000,-0.550001,0.050000,-0.599998,-0.050000,-0.600001,-0.100003,-0.550001,-0.100000,0.050001,-0.050000,0.100003,0.750001,0.100000,0.750001,0.100000,$1*%
%AMFreePoly3*
4,1,12,0.100000,0.550001,0.100000,0.099999,0.799998,0.099999,0.849998,0.049999,0.849998,-0.050001,0.800001,-0.100000,-0.050000,-0.100003,-0.100000,-0.050001,-0.100003,0.550001,-0.050000,0.600001,0.050000,0.600001,0.100000,0.550001,0.100000,0.550001,$1*%
%AMFreePoly4*
4,1,19,0.500000,-0.750000,0.000000,-0.750000,0.000000,-0.744911,-0.071157,-0.744911,-0.207708,-0.704816,-0.327430,-0.627875,-0.420627,-0.520320,-0.479746,-0.390866,-0.500000,-0.250000,-0.500000,0.250000,-0.479746,0.390866,-0.420627,0.520320,-0.327430,0.627875,-0.207708,0.704816,-0.071157,0.744911,0.000000,0.744911,0.000000,0.750000,0.500000,0.750000,0.500000,-0.750000,0.500000,-0.750000,
$1*%
%AMFreePoly5*
4,1,19,0.000000,0.744911,0.071157,0.744911,0.207708,0.704816,0.327430,0.627875,0.420627,0.520320,0.479746,0.390866,0.500000,0.250000,0.500000,-0.250000,0.479746,-0.390866,0.420627,-0.520320,0.327430,-0.627875,0.207708,-0.704816,0.071157,-0.744911,0.000000,-0.744911,0.000000,-0.750000,-0.500000,-0.750000,-0.500000,0.750000,0.000000,0.750000,0.000000,0.744911,0.000000,0.744911,
$1*%
G04 Aperture macros list end*
%ADD10C,0.000000*%
%ADD11RoundRect,0.250000X-0.625000X0.400000X-0.625000X-0.400000X0.625000X-0.400000X0.625000X0.400000X0*%
%ADD12RoundRect,0.237500X0.237500X-0.300000X0.237500X0.300000X-0.237500X0.300000X-0.237500X-0.300000X0*%
%ADD13RoundRect,0.250000X0.475000X-0.337500X0.475000X0.337500X-0.475000X0.337500X-0.475000X-0.337500X0*%
%ADD14RoundRect,0.237500X-0.237500X0.300000X-0.237500X-0.300000X0.237500X-0.300000X0.237500X0.300000X0*%
%ADD15C,1.000000*%
%ADD16C,4.249987*%
%ADD17C,0.800000*%
%ADD18RoundRect,0.237500X-0.300000X-0.237500X0.300000X-0.237500X0.300000X0.237500X-0.300000X0.237500X0*%
%ADD19RoundRect,0.237500X0.237500X-0.250000X0.237500X0.250000X-0.237500X0.250000X-0.237500X-0.250000X0*%
%ADD20RoundRect,0.237500X0.300000X0.237500X-0.300000X0.237500X-0.300000X-0.237500X0.300000X-0.237500X0*%
%ADD21R,3.500000X4.000000*%
%ADD22RoundRect,0.237500X-0.250000X-0.237500X0.250000X-0.237500X0.250000X0.237500X-0.250000X0.237500X0*%
%ADD23R,2.500000X1.900000*%
%ADD24R,0.800000X0.800000*%
%ADD25RoundRect,0.250000X-0.475000X0.337500X-0.475000X-0.337500X0.475000X-0.337500X0.475000X0.337500X0*%
%ADD26C,2.400000*%
%ADD27R,7.620000X5.080000*%
%ADD28R,1.200000X3.500000*%
%ADD29C,0.700000*%
%ADD30R,0.600000X1.300000*%
%ADD31R,0.300000X1.300000*%
%ADD32O,1.200000X2.200000*%
%ADD33O,1.200000X1.800000*%
%ADD34R,0.400000X0.450000*%
%ADD35R,1.600000X1.000000*%
%ADD36RoundRect,0.237500X0.250000X0.237500X-0.250000X0.237500X-0.250000X-0.237500X0.250000X-0.237500X0*%
%ADD37RoundRect,0.250000X-0.337500X-0.475000X0.337500X-0.475000X0.337500X0.475000X-0.337500X0.475000X0*%
%ADD38R,0.600000X1.000000*%
%ADD39R,2.000000X2.000000*%
%ADD40C,2.000000*%
%ADD41O,2.700000X1.800000*%
%ADD42RoundRect,0.250000X0.650000X-0.412500X0.650000X0.412500X-0.650000X0.412500X-0.650000X-0.412500X0*%
%ADD43R,1.000000X1.500000*%
%ADD44O,2.040000X0.570000*%
%ADD45RoundRect,0.237500X-0.237500X0.250000X-0.237500X-0.250000X0.237500X-0.250000X0.237500X0.250000X0*%
%ADD46R,3.460000X1.280000*%
%ADD47O,0.590000X2.050000*%
%ADD48R,0.610000X1.400000*%
%ADD49R,4.500000X3.810000*%
%ADD50R,1.700000X1.700000*%
%ADD51C,1.700000*%
%ADD52R,1.380000X1.130000*%
%ADD53FreePoly0,90.000000*%
%ADD54R,0.200000X0.599999*%
%ADD55FreePoly1,90.000000*%
%ADD56R,0.599999X0.200000*%
%ADD57FreePoly2,90.000000*%
%ADD58R,0.200000X0.700001*%
%ADD59R,0.200000X0.650001*%
%ADD60R,0.200000X0.680001*%
%ADD61FreePoly3,90.000000*%
%ADD62R,1.000000X0.200000*%
%ADD63R,0.950001X0.200000*%
%ADD64RoundRect,0.155000X0.155000X-0.212500X0.155000X0.212500X-0.155000X0.212500X-0.155000X-0.212500X0*%
%ADD65R,1.290000X1.420000*%
%ADD66R,5.200000X3.800000*%
%ADD67R,0.200000X0.600000*%
%ADD68R,0.600000X0.200000*%
%ADD69R,0.220000X0.600000*%
%ADD70R,2.650000X2.650000*%
%ADD71R,2.650000X1.530000*%
%ADD72C,2.500000*%
%ADD73C,1.800000*%
%ADD74O,0.360000X1.710000*%
%ADD75FreePoly4,90.000000*%
%ADD76FreePoly5,90.000000*%
G04 APERTURE END LIST*
D10*
G36*
X151950000Y-159449999D02*
G01*
X151950003Y-160300000D01*
X151900001Y-160350000D01*
X151299999Y-160350003D01*
X151249999Y-160300000D01*
X151249999Y-160200000D01*
X151299999Y-160150000D01*
X151750001Y-160150000D01*
X151750001Y-159450002D01*
X151800001Y-159400002D01*
X151900001Y-159400002D01*
X151950000Y-159449999D01*
G37*
G36*
X155650001Y-162950000D02*
G01*
X155650001Y-163050000D01*
X155600001Y-163100000D01*
X155149999Y-163100000D01*
X155149999Y-163749998D01*
X155099999Y-163799998D01*
X154999999Y-163799998D01*
X154950000Y-163750001D01*
X154950000Y-162950000D01*
X154999999Y-162900000D01*
X155600001Y-162900000D01*
X155650001Y-162950000D01*
G37*
D11*
X143020000Y-138800000D03*
X143020000Y-141900000D03*
D12*
X134675000Y-165987500D03*
X134675000Y-164262500D03*
D13*
X156350000Y-195987500D03*
X156350000Y-193912500D03*
D14*
X161620000Y-186037500D03*
X161620000Y-187762500D03*
D15*
X137050000Y-150150000D03*
X137050000Y-148450000D03*
D16*
X162999970Y-36752540D03*
D17*
X160246800Y-36750000D03*
X160450000Y-35708600D03*
X160475400Y-37791400D03*
X161008800Y-34845000D03*
X161034200Y-38705800D03*
X161897800Y-34210000D03*
X161948600Y-39315400D03*
X162990000Y-33981400D03*
X162990000Y-39518600D03*
X164082200Y-39290000D03*
X164133000Y-34235400D03*
X164971200Y-34819600D03*
X164971200Y-38705800D03*
X165555400Y-35734000D03*
X165555400Y-37842200D03*
X165733200Y-36750000D03*
D18*
X147587500Y-153100000D03*
X149312500Y-153100000D03*
D19*
X122825000Y-169025000D03*
X122825000Y-167200000D03*
D12*
X148075000Y-177250000D03*
X148075000Y-175525000D03*
D20*
X127687500Y-171375000D03*
X125962500Y-171375000D03*
D21*
X124625000Y-181575000D03*
X134225000Y-181575000D03*
D12*
X127900000Y-143712500D03*
X127900000Y-141987500D03*
D22*
X154307500Y-187000000D03*
X156132500Y-187000000D03*
D23*
X143450000Y-159550000D03*
X143450000Y-163650000D03*
D24*
X147700000Y-170200000D03*
X149300000Y-170200000D03*
D25*
X135675000Y-169487500D03*
X135675000Y-171562500D03*
D18*
X151402500Y-180850000D03*
X153127500Y-180850000D03*
X137772500Y-187750000D03*
X139497500Y-187750000D03*
D14*
X148520000Y-138667500D03*
X148520000Y-140392500D03*
D22*
X154307500Y-188500000D03*
X156132500Y-188500000D03*
D20*
X160925000Y-156925000D03*
X159200000Y-156925000D03*
D26*
X146050000Y-124340000D03*
D27*
X154050000Y-47190000D03*
X154050000Y-129810000D03*
D26*
X137350000Y-52720000D03*
D27*
X129350000Y-129870000D03*
X129350000Y-47250000D03*
D28*
X139125000Y-179845000D03*
X139125000Y-174505000D03*
D29*
X139110000Y-195530000D03*
X144890000Y-195530000D03*
D30*
X138800000Y-194290000D03*
X139600000Y-194290000D03*
D31*
X140750000Y-194290000D03*
X141750000Y-194290000D03*
X142250000Y-194290000D03*
X143250000Y-194290000D03*
D30*
X145200000Y-194290000D03*
X144400000Y-194290000D03*
D31*
X143750000Y-194290000D03*
X142750000Y-194290000D03*
X141250000Y-194290000D03*
X140250000Y-194290000D03*
D32*
X137680000Y-195030000D03*
D33*
X137680000Y-199210000D03*
D32*
X146320000Y-195030000D03*
D33*
X146320000Y-199210000D03*
D18*
X147587500Y-154600000D03*
X149312500Y-154600000D03*
D14*
X124325000Y-167250000D03*
X124325000Y-168975000D03*
D20*
X124287500Y-165712500D03*
X122562500Y-165712500D03*
D19*
X158970000Y-176662500D03*
X158970000Y-174837500D03*
D34*
X150587500Y-196090000D03*
X151237500Y-196090000D03*
X151887500Y-196090000D03*
X151887500Y-194130000D03*
X151237500Y-194130000D03*
X150587500Y-194130000D03*
D35*
X151237500Y-195110000D03*
D36*
X161075000Y-152825000D03*
X159250000Y-152825000D03*
D16*
X120999970Y-196752540D03*
D17*
X118246800Y-196750000D03*
X118450000Y-195708600D03*
X118475400Y-197791400D03*
X119008800Y-194845000D03*
X119034200Y-198705800D03*
X119897800Y-194210000D03*
X119948600Y-199315400D03*
X120990000Y-193981400D03*
X120990000Y-199518600D03*
X122082200Y-199290000D03*
X122133000Y-194235400D03*
X122971200Y-194819600D03*
X122971200Y-198705800D03*
X123555400Y-195734000D03*
X123555400Y-197842200D03*
X123733200Y-196750000D03*
D37*
X154162500Y-168050000D03*
X156237500Y-168050000D03*
D38*
X139585000Y-183750000D03*
X138635000Y-183750000D03*
X137685000Y-183750000D03*
X137685000Y-186350000D03*
X139585000Y-186350000D03*
D39*
X147300000Y-149450000D03*
D40*
X149840000Y-149450000D03*
D19*
X118325000Y-169025000D03*
X118325000Y-167200000D03*
D41*
X129260000Y-102600000D03*
X129260000Y-107300000D03*
X129260000Y-112000000D03*
D42*
X146175000Y-177937500D03*
X146175000Y-174812500D03*
D19*
X129505000Y-157912500D03*
X129505000Y-156087500D03*
D43*
X160812500Y-154925000D03*
X159512500Y-154925000D03*
D44*
X131895000Y-170105000D03*
X131895000Y-168825000D03*
X131895000Y-167565000D03*
X131895000Y-166295000D03*
X126355000Y-166295000D03*
X126355000Y-167565000D03*
X126355000Y-168825000D03*
X126355000Y-170105000D03*
D39*
X129125000Y-168195000D03*
D20*
X135472500Y-143660000D03*
X133747500Y-143660000D03*
D45*
X160180000Y-160217500D03*
X160180000Y-162042500D03*
D39*
X154520000Y-176500000D03*
D40*
X151980000Y-176500000D03*
D12*
X149350000Y-195712500D03*
X149350000Y-193987500D03*
D45*
X145130000Y-138617500D03*
X145130000Y-140442500D03*
D18*
X147587500Y-156100000D03*
X149312500Y-156100000D03*
X152587500Y-172900000D03*
X154312500Y-172900000D03*
D19*
X161970000Y-176662500D03*
X161970000Y-174837500D03*
D39*
X152455000Y-141400000D03*
D40*
X154995000Y-141400000D03*
D18*
X152587500Y-169850000D03*
X154312500Y-169850000D03*
D46*
X123485000Y-136100000D03*
X123485000Y-142240000D03*
D16*
X163009970Y-196752540D03*
D17*
X160256800Y-196750000D03*
X160460000Y-195708600D03*
X160485400Y-197791400D03*
X161018800Y-194845000D03*
X161044200Y-198705800D03*
X161907800Y-194210000D03*
X161958600Y-199315400D03*
X163000000Y-193981400D03*
X163000000Y-199518600D03*
X164092200Y-199290000D03*
X164143000Y-194235400D03*
X164981200Y-194819600D03*
X164981200Y-198705800D03*
X165565400Y-195734000D03*
X165565400Y-197842200D03*
X165743200Y-196750000D03*
D45*
X146825000Y-138617500D03*
X146825000Y-140442500D03*
D47*
X161630000Y-178480000D03*
X160350000Y-178480000D03*
X159090000Y-178480000D03*
X157820000Y-178480000D03*
X157820000Y-184020000D03*
X159090000Y-184020000D03*
X160350000Y-184020000D03*
X161630000Y-184020000D03*
D20*
X142172500Y-143630000D03*
X140447500Y-143630000D03*
X138822500Y-143650000D03*
X137097500Y-143650000D03*
D48*
X124635000Y-144590000D03*
X123365000Y-144590000D03*
X122085000Y-144590000D03*
X120815000Y-144590000D03*
X120815000Y-150230000D03*
X122085000Y-150230000D03*
X123365000Y-150230000D03*
X124635000Y-150230000D03*
D49*
X122725000Y-148120000D03*
D39*
X135270000Y-191580000D03*
D40*
X135270000Y-189040000D03*
D50*
X165170000Y-170500000D03*
D51*
X162630000Y-170500000D03*
X160090000Y-170500000D03*
X157550000Y-170500000D03*
D22*
X154330000Y-184650000D03*
X156155000Y-184650000D03*
D19*
X160470000Y-176662500D03*
X160470000Y-174837500D03*
D45*
X127935000Y-156087500D03*
X127935000Y-157912500D03*
D20*
X149312500Y-167100000D03*
X147587500Y-167100000D03*
D52*
X158500000Y-193930000D03*
X158500000Y-195870000D03*
D22*
X154330000Y-183150000D03*
X156155000Y-183150000D03*
D19*
X160120000Y-187812500D03*
X160120000Y-185987500D03*
D42*
X143875000Y-177937500D03*
X143875000Y-174812500D03*
D11*
X133105000Y-138800000D03*
X133105000Y-141900000D03*
X136410000Y-138800000D03*
X136410000Y-141900000D03*
D53*
X151850000Y-162950000D03*
D54*
X152250000Y-163499999D03*
X152649999Y-163499999D03*
X153050001Y-163499999D03*
X153450000Y-163499999D03*
X153849999Y-163499999D03*
X154250001Y-163499999D03*
X154650000Y-163499999D03*
D55*
X155050000Y-163000000D03*
D56*
X155349999Y-162600001D03*
X155349999Y-162199999D03*
X155349999Y-161800000D03*
X155349999Y-161400000D03*
X155349999Y-161000001D03*
X155349999Y-160599999D03*
D57*
X155050000Y-160200000D03*
D58*
X154650000Y-159750001D03*
D59*
X154249998Y-159725000D03*
D60*
X153849999Y-159740001D03*
D54*
X153450000Y-159700001D03*
X153050001Y-159700001D03*
X152649999Y-159700001D03*
X152250000Y-159700001D03*
D61*
X151850000Y-160250000D03*
D62*
X151750001Y-160699999D03*
X151750001Y-161150001D03*
X151750001Y-161600000D03*
X151750001Y-162049999D03*
D63*
X151725000Y-162500001D03*
D20*
X146542500Y-182260000D03*
X144817500Y-182260000D03*
D64*
X149975000Y-163767500D03*
X149975000Y-162632500D03*
D36*
X125027500Y-159470000D03*
X123202500Y-159470000D03*
D45*
X136175000Y-164212500D03*
X136175000Y-166037500D03*
D22*
X152762500Y-157200000D03*
X154587500Y-157200000D03*
D45*
X119825000Y-167200000D03*
X119825000Y-169025000D03*
D19*
X121325000Y-169025000D03*
X121325000Y-167200000D03*
D50*
X153760000Y-191300000D03*
D51*
X156300000Y-191300000D03*
X158840000Y-191300000D03*
X161380000Y-191300000D03*
D11*
X129800000Y-138800000D03*
X129800000Y-141900000D03*
D18*
X147587500Y-151600000D03*
X149312500Y-151600000D03*
D39*
X121200000Y-132390000D03*
D40*
X121200000Y-129850000D03*
D65*
X128825000Y-173442500D03*
D66*
X124725000Y-174362500D03*
D65*
X128825000Y-175282500D03*
D20*
X149312500Y-168600000D03*
X147587500Y-168600000D03*
X146542500Y-183770000D03*
X144817500Y-183770000D03*
D11*
X139715000Y-138800000D03*
X139715000Y-141900000D03*
D45*
X126365000Y-156087500D03*
X126365000Y-157912500D03*
D19*
X161700000Y-162042500D03*
X161700000Y-160217500D03*
D28*
X143330000Y-166720000D03*
X143330000Y-172060000D03*
D64*
X150000000Y-160667500D03*
X150000000Y-159532500D03*
D16*
X120999970Y-36752540D03*
D17*
X118246800Y-36750000D03*
X118450000Y-35708600D03*
X118475400Y-37791400D03*
X119008800Y-34845000D03*
X119034200Y-38705800D03*
X119897800Y-34210000D03*
X119948600Y-39315400D03*
X120990000Y-33981400D03*
X120990000Y-39518600D03*
X122082200Y-39290000D03*
X122133000Y-34235400D03*
X122971200Y-34819600D03*
X122971200Y-38705800D03*
X123555400Y-35734000D03*
X123555400Y-37842200D03*
X123733200Y-36750000D03*
D45*
X137675000Y-166062500D03*
X137675000Y-167887500D03*
D18*
X152137500Y-166300000D03*
X153862500Y-166300000D03*
X152812500Y-152600000D03*
X154537500Y-152600000D03*
D12*
X147850000Y-195712500D03*
X147850000Y-193987500D03*
D67*
X149420000Y-188000000D03*
X149820000Y-188000000D03*
X150220000Y-188000000D03*
X150620000Y-188000000D03*
X151020000Y-188000000D03*
X151420000Y-188000000D03*
D68*
X152320000Y-187500000D03*
X152320000Y-187100000D03*
X152320000Y-186700000D03*
X152320000Y-186300000D03*
X152320000Y-185900000D03*
X152320000Y-185500000D03*
X152320000Y-185100000D03*
X152320000Y-184700000D03*
X152320000Y-184300000D03*
X152320000Y-183900000D03*
X152320000Y-183500000D03*
X152320000Y-183100000D03*
X152320000Y-182700000D03*
D69*
X151540000Y-182200000D03*
X151100000Y-182200000D03*
X150640000Y-182200000D03*
X150200000Y-182200000D03*
X149740000Y-182200000D03*
X149300000Y-182200000D03*
D68*
X148520000Y-182700000D03*
X148520000Y-183100000D03*
X148520000Y-183500000D03*
X148520000Y-183900000D03*
X148520000Y-184300000D03*
X148520000Y-184700000D03*
X148520000Y-185100000D03*
X148520000Y-185500000D03*
X148520000Y-185900000D03*
X148520000Y-186300000D03*
X148520000Y-186700000D03*
X148520000Y-187100000D03*
X148520000Y-187500000D03*
D70*
X150420000Y-186060000D03*
D71*
X150420000Y-183540000D03*
D20*
X132082500Y-143650000D03*
X130357500Y-143650000D03*
D72*
X144500000Y-40987500D03*
X139500000Y-40987500D03*
D73*
X136500000Y-35987500D03*
X147500000Y-35987500D03*
D12*
X154600000Y-195662500D03*
X154600000Y-193937500D03*
D19*
X120595000Y-142922500D03*
X120595000Y-141097500D03*
D18*
X152587500Y-174400000D03*
X154312500Y-174400000D03*
D45*
X134265000Y-156087500D03*
X134265000Y-157912500D03*
D15*
X160060000Y-144370000D03*
X160060000Y-146070000D03*
D45*
X132655000Y-156090000D03*
X132655000Y-157915000D03*
D19*
X126365000Y-148462500D03*
X126365000Y-146637500D03*
D12*
X153100000Y-195675000D03*
X153100000Y-193950000D03*
D18*
X147587500Y-157700000D03*
X149312500Y-157700000D03*
D74*
X134635000Y-148470000D03*
X133985000Y-148470000D03*
X133335000Y-148470000D03*
X132685000Y-148470000D03*
X132035000Y-148470000D03*
X131385000Y-148470000D03*
X130725000Y-148470000D03*
X130075000Y-148470000D03*
X129425000Y-148470000D03*
X128775000Y-148470000D03*
X128125000Y-148470000D03*
X127475000Y-148470000D03*
X127475000Y-154030000D03*
X128125000Y-154030000D03*
X128775000Y-154030000D03*
X129425000Y-154030000D03*
X130075000Y-154030000D03*
X130725000Y-154030000D03*
X131385000Y-154030000D03*
X132035000Y-154030000D03*
X132685000Y-154030000D03*
X133335000Y-154030000D03*
X133985000Y-154030000D03*
X134635000Y-154030000D03*
D19*
X131055000Y-157912500D03*
X131055000Y-156087500D03*
D75*
X160050000Y-166050000D03*
D76*
X160050000Y-164750000D03*
D18*
X152812500Y-154100000D03*
X154537500Y-154100000D03*
D14*
X133925000Y-169437500D03*
X133925000Y-171162500D03*
D75*
X157550000Y-166050000D03*
D76*
X157550000Y-164750000D03*
D25*
X137675000Y-169487500D03*
X137675000Y-171562500D03*
D18*
X152625000Y-171400000D03*
X154350000Y-171400000D03*
D48*
X120815000Y-157860000D03*
X122085000Y-157860000D03*
X123365000Y-157860000D03*
X124635000Y-157860000D03*
X124635000Y-152220000D03*
X123365000Y-152220000D03*
X122085000Y-152220000D03*
X120815000Y-152220000D03*
D49*
X122725000Y-154330000D03*
D20*
X149312500Y-165600000D03*
X147587500Y-165600000D03*
D18*
X152812500Y-155700000D03*
X154537500Y-155700000D03*
D26*
X137300000Y-124430000D03*
X146000000Y-52750000D03*
M02*
